<?xml version="1.0" encoding="UTF-8"?>
<svg xmlns="http://www.w3.org/2000/svg" xmlns:xlink="http://www.w3.org/1999/xlink" viewBox="0 0 48 48" width="48px" height="48px">
<defs>
<linearGradient id="linear0" gradientUnits="userSpaceOnUse" x1="62.113499" y1="16.859579" x2="105.679672" y2="118.081581" gradientTransform="matrix(0.27907,0,0,0.27907,0,0)">
<stop offset="0" style="stop-color:rgb(100%,100%,100%);stop-opacity:1;"/>
<stop offset="1" style="stop-color:rgb(82.352942%,82.352942%,82.352942%);stop-opacity:1;"/>
</linearGradient>
<linearGradient id="linear1" gradientUnits="userSpaceOnUse" x1="142.476913" y1="113.125832" x2="156.251251" y2="152.155502" gradientTransform="matrix(0.27907,0,0,0.27907,0,0)">
<stop offset="0" style="stop-color:rgb(100%,100%,100%);stop-opacity:1;"/>
<stop offset="1" style="stop-color:rgb(82.352942%,82.352942%,82.352942%);stop-opacity:1;"/>
</linearGradient>
<linearGradient id="linear2" gradientUnits="userSpaceOnUse" x1="32.25" y1="143.333328" x2="139.75" y2="143.333328" gradientTransform="matrix(0.999999,0,0,0.999999,0,0)">
<stop offset="0" style="stop-color:rgb(92.54902%,94.117647%,94.509804%);stop-opacity:1;"/>
<stop offset="0.112" style="stop-color:rgb(85.490197%,86.274511%,86.274511%);stop-opacity:1;"/>
<stop offset="0.258" style="stop-color:rgb(69.01961%,76.862746%,77.254903%);stop-opacity:1;"/>
<stop offset="0.5" style="stop-color:rgb(57.254905%,66.274512%,67.843139%);stop-opacity:1;"/>
<stop offset="0.742" style="stop-color:rgb(69.01961%,76.862746%,77.254903%);stop-opacity:1;"/>
<stop offset="0.888" style="stop-color:rgb(85.490197%,86.274511%,86.274511%);stop-opacity:1;"/>
<stop offset="1" style="stop-color:rgb(92.54902%,94.117647%,94.509804%);stop-opacity:1;"/>
</linearGradient>
<linearGradient id="linear3" gradientUnits="userSpaceOnUse" x1="29.523081" y1="113.125832" x2="15.74875" y2="152.155502" gradientTransform="matrix(0.27907,0,0,0.27907,0,0)">
<stop offset="0" style="stop-color:rgb(100%,100%,100%);stop-opacity:1;"/>
<stop offset="1" style="stop-color:rgb(82.352942%,82.352942%,82.352942%);stop-opacity:1;"/>
</linearGradient>
</defs>
<g id="surface2459261">
<path style=" stroke:none;fill-rule:nonzero;fill:url(#linear0);" d="M 31.191406 22 L 27 22 L 27 6 C 27 5.449219 26.550781 5 26 5 L 22 5 C 21.449219 5 21 5.449219 21 6 L 21 22 L 16.808594 22 C 16.089844 22 15.730469 22.871094 16.238281 23.378906 L 22.941406 30.078125 C 23.527344 30.664062 24.476562 30.664062 25.0625 30.078125 L 31.761719 23.378906 C 32.269531 22.871094 31.910156 22 31.191406 22 Z M 31.191406 22 "/>
<path style=" stroke:none;fill-rule:nonzero;fill:url(#linear1);" d="M 39 33 L 39 43 L 43.828125 38.171875 C 44.578125 37.421875 45 36.402344 45 35.34375 L 45 33 C 45 32.449219 44.550781 32 44 32 L 40 32 C 39.449219 32 39 32.449219 39 33 Z M 39 33 "/>
<path style=" stroke:none;fill-rule:nonzero;fill:url(#linear2);" d="M 9 37 L 39 37 L 39 43 L 9 43 Z M 9 37 "/>
<path style=" stroke:none;fill-rule:nonzero;fill:url(#linear3);" d="M 9 33 L 9 43 L 4.171875 38.171875 C 3.421875 37.421875 3 36.402344 3 35.34375 L 3 33 C 3 32.449219 3.449219 32 4 32 L 8 32 C 8.550781 32 9 32.449219 9 33 Z M 9 33 "/>
</g>
</svg>
