<?xml version="1.0" encoding="UTF-8"?>
<svg xmlns="http://www.w3.org/2000/svg" xmlns:xlink="http://www.w3.org/1999/xlink" viewBox="0 0 64 64" width="64px" height="64px">
<g id="surface2993206">
<path style=" stroke:none;fill-rule:nonzero;fill:rgb(0%,67.450982%,91.764706%);fill-opacity:1;" d="M 54.566406 11.03125 C 55.386719 11.851562 55.847656 12.964844 55.847656 14.125 C 55.847656 15.285156 55.386719 16.394531 54.566406 17.214844 L 52.355469 19.425781 L 44.703125 11.773438 L 46.910156 9.5625 C 47.730469 8.742188 48.84375 8.28125 50.003906 8.28125 C 51.164062 8.28125 52.277344 8.742188 53.097656 9.5625 Z M 54.566406 11.03125 "/>
<path style=" stroke:none;fill-rule:nonzero;fill:rgb(0%,93.725491%,81.960785%);fill-opacity:1;" d="M 52.355469 19.425781 L 32.335938 39.445312 L 24.679688 31.792969 L 44.703125 11.773438 Z M 52.355469 19.425781 "/>
<path style=" stroke:none;fill-rule:nonzero;fill:rgb(20.392157%,59.607846%,85.882354%);fill-opacity:1;" d="M 24.679688 31.792969 L 32.335938 39.445312 L 32.265625 39.515625 L 21.675781 42.449219 L 24.609375 31.863281 Z M 24.679688 31.792969 "/>
<path style=" stroke:none;fill-rule:nonzero;fill:rgb(20.392157%,28.627452%,36.862746%);fill-opacity:1;" d="M 53.226562 38.371094 C 52.539062 38.371094 51.976562 38.929688 51.976562 39.621094 L 51.976562 50.71875 C 51.976562 52.789062 50.296875 54.464844 48.226562 54.46875 L 13.152344 54.46875 C 11.082031 54.464844 9.40625 52.789062 9.402344 50.71875 L 9.402344 18.144531 C 9.40625 16.074219 11.082031 14.398438 13.152344 14.394531 L 24.253906 14.394531 C 24.941406 14.394531 25.503906 13.835938 25.503906 13.144531 C 25.503906 12.453125 24.941406 11.894531 24.253906 11.894531 L 13.152344 11.894531 C 9.703125 11.898438 6.90625 14.695312 6.902344 18.144531 L 6.902344 50.71875 C 6.90625 54.167969 9.703125 56.964844 13.152344 56.96875 L 48.226562 56.96875 C 51.675781 56.964844 54.472656 54.167969 54.476562 50.71875 L 54.476562 39.621094 C 54.476562 38.929688 53.917969 38.371094 53.226562 38.371094 Z M 53.226562 38.371094 "/>
<path style=" stroke:none;fill-rule:nonzero;fill:rgb(20.392157%,28.627452%,36.862746%);fill-opacity:1;" d="M 53.984375 8.679688 C 51.785156 6.484375 48.226562 6.484375 46.027344 8.679688 L 23.726562 30.980469 C 23.574219 31.132812 23.464844 31.320312 23.40625 31.53125 L 20.472656 42.117188 C 20.351562 42.550781 20.476562 43.015625 20.792969 43.332031 C 21.113281 43.652344 21.578125 43.773438 22.011719 43.65625 L 32.597656 40.722656 C 32.804688 40.664062 32.996094 40.554688 33.148438 40.402344 L 33.21875 40.328125 L 55.449219 18.101562 C 56.503906 17.046875 57.097656 15.613281 57.097656 14.125 C 57.097656 12.632812 56.503906 11.199219 55.449219 10.144531 Z M 25.273438 34.152344 L 29.976562 38.855469 L 23.472656 40.65625 Z M 32.335938 39.445312 L 33.152344 40.261719 Z M 32.335938 37.679688 L 26.449219 31.792969 L 44.703125 13.539062 L 50.585938 19.425781 Z M 53.679688 16.332031 L 52.355469 17.660156 L 46.46875 11.773438 L 47.796875 10.445312 C 49.015625 9.226562 50.992188 9.226562 52.214844 10.445312 L 53.679688 11.914062 C 54.265625 12.5 54.597656 13.292969 54.597656 14.125 C 54.597656 14.953125 54.265625 15.746094 53.679688 16.332031 Z M 53.679688 16.332031 "/>
</g>
</svg>
