<?xml version="1.0" encoding="UTF-8"?>
<svg xmlns="http://www.w3.org/2000/svg" xmlns:xlink="http://www.w3.org/1999/xlink" viewBox="0 0 50 50" width="50px" height="50px">
<g id="surface13992679">
<path style=" stroke:none;fill-rule:nonzero;fill:rgb(100%,100%,100%);fill-opacity:1;" d="M 19.1875 3 C 18.886719 3.007812 18.59375 3.089844 18.3125 3.21875 C 17.230469 3.71875 16.714844 4.984375 17.15625 6.09375 L 19.125 11.03125 L 15.96875 16.46875 L 10.71875 17.1875 L 6.75 13.375 L 8 7.53125 C 8.070312 6.917969 7.867188 6.285156 7.46875 5.8125 C 7.070312 5.339844 6.492188 5.03125 5.875 5 L 5.625 5 C 4.425781 4.945312 3.40625 5.816406 3.28125 7 L 2.03125 13.90625 C 1.941406 14.726562 2.15625 15.5625 2.65625 16.21875 L 8.28125 22.84375 L 5.90625 27.46875 C 5.230469 28.953125 4.957031 30.597656 5.125 32.21875 L 6.84375 45.6875 C 6.980469 47.007812 8.078125 48 9.40625 48 C 10.128906 48 10.824219 47.6875 11.3125 47.15625 C 11.800781 46.625 12.0625 45.90625 12 45.1875 L 11 33 L 12 32 L 15.46875 36.8125 L 14.0625 44.96875 C 13.902344 45.710938 14.085938 46.472656 14.5625 47.0625 C 15.039062 47.65625 15.738281 48 16.5 48 C 17.640625 48 18.621094 47.226562 18.90625 46.125 L 20.78125 37.46875 C 21.003906 36.617188 20.882812 35.710938 20.46875 34.9375 L 17 28.4375 L 18.6875 21.0625 L 23.625 13 C 24.0625 12.265625 24.132812 11.355469 23.8125 10.5625 L 21.3125 4.40625 C 21.078125 3.832031 20.640625 3.386719 20.0625 3.15625 C 19.773438 3.042969 19.488281 2.992188 19.1875 3 Z M 45.6875 3 C 44.570312 2.953125 43.511719 3.691406 43.21875 4.8125 L 41.1875 10.15625 L 37.5625 15.46875 L 31 17 C 30.078125 17.207031 29.273438 17.679688 28.65625 18.375 L 24.625 23.1875 C 24.15625 23.710938 23.808594 24.355469 23.625 25.03125 L 22.0625 30.21875 C 21.75 31.382812 22.460938 32.585938 23.625 32.90625 C 24.773438 33.226562 25.96875 32.574219 26.3125 31.4375 L 27.90625 26.71875 L 31 23 C 31.269531 24.722656 30.703125 27.976562 30.34375 29 L 26.40625 36.59375 C 26.21875 36.953125 26.085938 37.347656 26 37.75 L 24.0625 45 C 23.90625 45.734375 24.085938 46.507812 24.5625 47.09375 C 25.035156 47.679688 25.746094 48 26.5 48 L 26.78125 48 C 27.957031 48 28.984375 47.152344 29.21875 46 L 31.09375 38.96875 L 35 32 L 38.09375 36.5 L 39.03125 45.78125 C 39.175781 47.039062 40.234375 48 41.5 48 C 42.203125 48 42.90625 47.710938 43.375 47.1875 C 43.847656 46.664062 44.070312 45.949219 44 45.25 L 43.09375 35.5625 C 43.039062 35.050781 42.90625 34.554688 42.6875 34.09375 L 39.75 27.9375 C 40.042969 27.070312 41 24.105469 41 20 L 45.4375 12.34375 C 45.460938 12.308594 45.488281 12.257812 45.5 12.21875 L 47.90625 6.09375 C 48.089844 5.457031 48.019531 4.792969 47.6875 4.21875 C 47.355469 3.644531 46.800781 3.222656 46.15625 3.0625 C 45.996094 3.023438 45.847656 3.007812 45.6875 3 Z M 13 7 C 10.789062 7 9 8.789062 9 11 C 9 13.210938 10.789062 15 13 15 C 15.210938 15 17 13.210938 17 11 C 17 8.789062 15.210938 7 13 7 Z M 33 7 C 30.789062 7 29 8.789062 29 11 C 29 13.210938 30.789062 15 33 15 C 35.210938 15 37 13.210938 37 11 C 37 8.789062 35.210938 7 33 7 Z M 33 7 "/>
</g>
</svg>
