<?xml version="1.0" encoding="UTF-8"?>
<svg xmlns="http://www.w3.org/2000/svg" xmlns:xlink="http://www.w3.org/1999/xlink" viewBox="0 0 50 50" width="50px" height="50px">
<g id="surface48274259">
<path style=" stroke:none;fill-rule:nonzero;fill:rgb(20.392157%,59.607846%,85.882354%);fill-opacity:1;" d="M 45.0625 2.4375 C 43.710938 2.378906 42.445312 3.277344 42.09375 4.625 L 40.71875 9.96875 L 36.96875 15.375 L 31 16.71875 C 29.988281 16.949219 29.0625 17.472656 28.375 18.25 L 24.25 22.84375 C 23.726562 23.425781 23.328125 24.148438 23.125 24.90625 L 21.71875 30.21875 C 21.335938 31.644531 22.171875 33.136719 23.59375 33.53125 C 25 33.921875 26.484375 33.085938 26.90625 31.6875 L 28.3125 27.03125 L 30.53125 24.8125 C 30.511719 25.414062 30.660156 25.8125 30.53125 26.4375 C 30.257812 27.785156 29.84375 28.90625 29.84375 28.90625 L 25.96875 36.375 C 25.757812 36.78125 25.59375 37.214844 25.5 37.65625 L 24.09375 44.4375 C 23.707031 46.273438 25.125 48.0625 27 48.0625 L 27.3125 48.0625 C 28.726562 48.0625 29.96875 47.039062 30.25 45.65625 L 31.5625 39.1875 L 34.90625 33.1875 L 37.625 36.71875 L 38.59375 45.40625 C 38.761719 46.910156 40.050781 48.0625 41.5625 48.0625 C 43.316406 48.0625 44.710938 46.496094 44.53125 44.75 L 43.59375 35.5 C 43.535156 34.9375 43.367188 34.386719 43.125 33.875 L 40.28125 27.875 C 40.496094 27.28125 41.5625 24.085938 41.1875 20.5 L 45.875 12.59375 C 45.914062 12.523438 45.945312 12.453125 45.96875 12.375 L 47.75 6.15625 C 48.203125 4.578125 47.25 2.929688 45.65625 2.53125 C 45.464844 2.484375 45.253906 2.445312 45.0625 2.4375 Z M 19.25 2.75 C 18.882812 2.757812 18.507812 2.835938 18.15625 3 C 16.839844 3.609375 16.210938 5.152344 16.75 6.5 L 18.5 10.9375 L 15.65625 16 L 10.875 16.65625 L 7.875 13.21875 L 8.03125 11.84375 C 8.210938 14.15625 10.144531 16 12.5 16 C 14.972656 16 17 13.972656 17 11.5 C 17 9.027344 14.972656 7 12.5 7 C 10.507812 7 8.804688 8.320312 8.21875 10.125 L 8.5 7.78125 C 8.683594 6.21875 7.476562 4.800781 5.90625 4.71875 L 5.6875 4.71875 C 4.242188 4.644531 2.964844 5.714844 2.8125 7.15625 L 2.09375 13.875 C 1.992188 14.820312 2.269531 15.742188 2.84375 16.5 L 7.6875 22.90625 L 5.9375 26.78125 C 5.226562 28.347656 4.945312 30.070312 5.125 31.78125 L 6.53125 45.21875 C 6.695312 46.78125 8.023438 48 9.59375 48 C 11.382812 48 12.804688 46.441406 12.65625 44.65625 L 11.65625 32.625 L 11.78125 32.53125 L 14.90625 36.90625 L 13.3125 44.375 C 12.914062 46.222656 14.359375 48 16.25 48 C 17.609375 48 18.785156 47.070312 19.125 45.75 L 21.25 37.59375 C 21.5 36.625 21.375 35.605469 20.90625 34.71875 L 17.5625 28.375 L 19.15625 21.25 L 23.96875 13.1875 C 24.488281 12.316406 24.597656 11.253906 24.21875 10.3125 L 21.84375 4.46875 C 21.554688 3.746094 20.988281 3.203125 20.3125 2.9375 C 19.976562 2.804688 19.617188 2.742188 19.25 2.75 Z M 44.78125 4.4375 C 44.898438 4.421875 45.03125 4.4375 45.15625 4.46875 C 45.675781 4.597656 45.960938 5.109375 45.8125 5.625 L 44.03125 11.8125 L 39.34375 19.71875 C 39.21875 19.914062 39.160156 20.144531 39.1875 20.375 C 39.65625 23.71875 38.28125 27.625 38.28125 27.625 C 38.183594 27.878906 38.195312 28.160156 38.3125 28.40625 L 41.3125 34.71875 C 41.457031 35.027344 41.558594 35.378906 41.59375 35.71875 L 42.53125 44.96875 C 42.59375 45.566406 42.164062 46.0625 41.5625 46.0625 C 41.050781 46.0625 40.652344 45.695312 40.59375 45.1875 L 39.5625 36.1875 C 39.546875 36.007812 39.480469 35.835938 39.375 35.6875 L 35.59375 30.78125 C 35.394531 30.503906 35.066406 30.34375 34.722656 30.363281 C 34.382812 30.382812 34.074219 30.574219 33.90625 30.875 L 29.75 38.3125 C 29.703125 38.402344 29.671875 38.496094 29.65625 38.59375 L 28.28125 45.25 C 28.1875 45.714844 27.785156 46.0625 27.3125 46.0625 L 27 46.0625 C 26.351562 46.0625 25.898438 45.511719 26.03125 44.875 L 27.46875 38.0625 C 27.527344 37.792969 27.625 37.519531 27.75 37.28125 L 31.6875 29.6875 C 31.710938 29.648438 31.730469 29.605469 31.75 29.5625 C 31.75 29.5625 32.195312 28.347656 32.5 26.84375 C 32.804688 25.339844 33.09375 23.582031 32.375 22.09375 C 32.234375 21.804688 31.964844 21.601562 31.648438 21.546875 C 31.335938 21.492188 31.011719 21.589844 30.78125 21.8125 L 26.75 25.75 C 26.628906 25.871094 26.542969 26.023438 26.5 26.1875 L 25 31.125 C 24.886719 31.503906 24.503906 31.699219 24.125 31.59375 C 23.742188 31.488281 23.550781 31.105469 23.65625 30.71875 L 25.0625 25.40625 C 25.183594 24.953125 25.402344 24.539062 25.71875 24.1875 L 29.875 19.59375 C 29.875 19.582031 29.875 19.574219 29.875 19.5625 C 30.285156 19.101562 30.832031 18.792969 31.4375 18.65625 L 37.78125 17.21875 C 38.035156 17.167969 38.257812 17.023438 38.40625 16.8125 L 42.46875 10.9375 C 42.542969 10.832031 42.59375 10.71875 42.625 10.59375 L 44.03125 5.125 C 44.128906 4.746094 44.425781 4.488281 44.78125 4.4375 Z M 19.3125 4.75 C 19.609375 4.742188 19.875 4.914062 20 5.21875 L 22.34375 11.0625 C 22.488281 11.425781 22.449219 11.820312 22.25 12.15625 L 17.34375 20.375 C 17.289062 20.460938 17.246094 20.554688 17.21875 20.65625 L 15.5 28.28125 C 15.449219 28.515625 15.480469 28.757812 15.59375 28.96875 L 19.15625 35.65625 C 19.390625 36.097656 19.4375 36.609375 19.3125 37.09375 L 17.1875 45.25 C 17.070312 45.695312 16.710938 46 16.25 46 C 15.589844 46 15.109375 45.425781 15.25 44.78125 L 16.96875 36.90625 C 17.027344 36.636719 16.96875 36.351562 16.8125 36.125 L 12.8125 30.53125 C 12.65625 30.3125 12.417969 30.167969 12.15625 30.128906 C 11.890625 30.085938 11.621094 30.152344 11.40625 30.3125 L 10 31.40625 C 9.734375 31.617188 9.59375 31.945312 9.625 32.28125 L 10.6875 44.8125 C 10.742188 45.460938 10.242188 46 9.59375 46 C 9.03125 46 8.558594 45.59375 8.5 45.03125 L 7.125 31.5625 C 6.984375 30.203125 7.183594 28.835938 7.75 27.59375 L 9.75 23.1875 C 9.902344 22.863281 9.863281 22.480469 9.65625 22.1875 L 4.4375 15.3125 C 4.171875 14.960938 4.046875 14.5 4.09375 14.0625 L 4.8125 7.375 C 4.855469 6.972656 5.160156 6.699219 5.5625 6.71875 L 5.8125 6.71875 C 6.257812 6.742188 6.550781 7.121094 6.5 7.5625 L 5.8125 13.40625 C 5.78125 13.691406 5.871094 13.976562 6.0625 14.1875 L 9.75 18.375 C 9.972656 18.636719 10.316406 18.769531 10.65625 18.71875 L 16.4375 17.90625 C 16.742188 17.859375 17.007812 17.675781 17.15625 17.40625 L 20.5 11.46875 C 20.644531 11.210938 20.667969 10.902344 20.5625 10.625 L 18.625 5.75 C 18.472656 5.371094 18.632812 4.984375 19 4.8125 C 19.097656 4.765625 19.214844 4.753906 19.3125 4.75 Z M 32.5 7 C 30.027344 7 28 9.027344 28 11.5 C 28 13.972656 30.027344 16 32.5 16 C 34.972656 16 37 13.972656 37 11.5 C 37 9.027344 34.972656 7 32.5 7 Z M 12.5 9 C 13.890625 9 15 10.109375 15 11.5 C 15 12.890625 13.890625 14 12.5 14 C 11.109375 14 10 12.890625 10 11.5 C 10 10.109375 11.109375 9 12.5 9 Z M 32.5 9 C 33.890625 9 35 10.109375 35 11.5 C 35 12.890625 33.890625 14 32.5 14 C 31.109375 14 30 12.890625 30 11.5 C 30 10.109375 31.109375 9 32.5 9 Z M 32.5 9 "/>
</g>
</svg>
