<?xml version="1.0" encoding="UTF-8"?>
<svg xmlns="http://www.w3.org/2000/svg" xmlns:xlink="http://www.w3.org/1999/xlink" viewBox="0 0 64 64" width="64px" height="64px">
<g id="surface48272004">
<path style=" stroke:none;fill-rule:nonzero;fill:rgb(20.392157%,59.607846%,85.882354%);fill-opacity:1;" d="M 49.511719 49.632812 L 44.488281 49.632812 C 43.113281 49.632812 42 50.746094 42 52.121094 L 42 55.757812 L 52 55.757812 L 52 52.121094 C 52 50.746094 50.886719 49.632812 49.511719 49.632812 Z M 49.511719 49.632812 "/>
<path style=" stroke:none;fill-rule:nonzero;fill:rgb(20.392157%,59.607846%,85.882354%);fill-opacity:1;" d="M 29.511719 49.632812 L 24.488281 49.632812 C 23.113281 49.632812 22 50.746094 22 52.121094 L 22 55.757812 L 32 55.757812 L 32 52.121094 C 32 50.746094 30.886719 49.632812 29.511719 49.632812 Z M 29.511719 49.632812 "/>
<path style=" stroke:none;fill-rule:nonzero;fill:rgb(20.392157%,59.607846%,85.882354%);fill-opacity:1;" d="M 39.511719 49.632812 L 34.488281 49.632812 C 33.113281 49.632812 32 50.746094 32 52.121094 L 32 55.757812 L 42 55.757812 L 42 52.121094 C 42 50.746094 40.886719 49.632812 39.511719 49.632812 Z M 39.511719 49.632812 "/>
<path style=" stroke:none;fill-rule:nonzero;fill:rgb(20.392157%,59.607846%,85.882354%);fill-opacity:1;" d="M 19.511719 49.632812 L 14.488281 49.632812 C 13.113281 49.632812 12 50.746094 12 52.121094 L 12 55.757812 L 22 55.757812 L 22 52.121094 C 22 50.746094 20.886719 49.632812 19.511719 49.632812 Z M 19.511719 49.632812 "/>
<path style=" stroke:none;fill-rule:nonzero;fill:rgb(10.196079%,73.725492%,61.176473%);fill-opacity:1;" d="M 33.5 24.941406 L 30.648438 19.738281 L 20.683594 25.195312 L 23.539062 30.402344 C 24.214844 31.636719 25.820312 32.800781 27.121094 32.996094 L 30.734375 33.539062 C 31.175781 33.605469 31.625 33.464844 31.949219 33.15625 L 31.957031 33.15625 L 33.066406 30.921875 L 33.761719 29.355469 C 34.296875 28.15625 34.179688 26.179688 33.5 24.941406 Z M 33.5 24.941406 "/>
<path style=" stroke:none;fill-rule:nonzero;fill:rgb(20.392157%,59.607846%,85.882354%);fill-opacity:1;" d="M 44.511719 53.382812 L 39.488281 53.382812 C 38.113281 53.382812 37 54.496094 37 55.871094 L 37 61.6875 L 47 61.6875 L 47 55.871094 C 47 54.496094 45.886719 53.382812 44.511719 53.382812 Z M 44.511719 53.382812 "/>
<path style=" stroke:none;fill-rule:nonzero;fill:rgb(20.392157%,59.607846%,85.882354%);fill-opacity:1;" d="M 24.511719 53.382812 L 19.488281 53.382812 C 18.113281 53.382812 17 54.496094 17 55.871094 L 17 61.6875 L 27 61.6875 L 27 55.871094 C 27 54.496094 25.886719 53.382812 24.511719 53.382812 Z M 24.511719 53.382812 "/>
<path style=" stroke:none;fill-rule:nonzero;fill:rgb(20.392157%,59.607846%,85.882354%);fill-opacity:1;" d="M 54.511719 53.382812 L 49.488281 53.382812 C 48.113281 53.382812 47 54.496094 47 55.871094 L 47 61.6875 L 57 61.6875 L 57 55.871094 C 57 54.496094 55.886719 53.382812 54.511719 53.382812 Z M 54.511719 53.382812 "/>
<path style=" stroke:none;fill-rule:nonzero;fill:rgb(20.392157%,59.607846%,85.882354%);fill-opacity:1;" d="M 34.511719 53.382812 L 29.488281 53.382812 C 28.113281 53.382812 27 54.496094 27 55.871094 L 27 61.6875 L 37 61.6875 L 37 55.871094 C 37 54.496094 35.886719 53.382812 34.511719 53.382812 Z M 34.511719 53.382812 "/>
<path style=" stroke:none;fill-rule:nonzero;fill:rgb(20.392157%,59.607846%,85.882354%);fill-opacity:1;" d="M 14.511719 53.382812 L 9.488281 53.382812 C 8.113281 53.382812 7 54.496094 7 55.871094 L 7 61.6875 L 17 61.6875 L 17 55.871094 C 17 54.496094 15.886719 53.382812 14.511719 53.382812 Z M 14.511719 53.382812 "/>
<path style=" stroke:none;fill-rule:nonzero;fill:rgb(100%,85.882354%,0%);fill-opacity:1;" d="M 9.296875 28.285156 C 7.914062 29.019531 6.375 29.410156 4.8125 29.421875 L 4.8125 32.117188 C 6.609375 32.066406 8.375 31.636719 9.996094 30.863281 L 10.136719 30.777344 Z M 9.296875 28.285156 "/>
<path style=" stroke:none;fill-rule:nonzero;fill:rgb(100%,85.882354%,0%);fill-opacity:1;" d="M 54.65625 28.121094 L 54.65625 28.125 L 53.300781 30.617188 L 53.441406 30.703125 C 56.125 31.988281 59.1875 31.816406 59.1875 31.816406 L 59.1875 29.261719 C 57.609375 29.242188 56.054688 28.855469 54.65625 28.121094 Z M 54.65625 28.121094 "/>
<path style=" stroke:none;fill-rule:nonzero;fill:rgb(10.196079%,73.725492%,61.176473%);fill-opacity:1;" d="M 56.40625 48.601562 C 56.1875 48.605469 55.984375 48.707031 55.84375 48.871094 L 55.804688 48.917969 C 55.523438 49.246094 55.121094 49.453125 54.6875 49.488281 C 54.253906 49.523438 53.824219 49.382812 53.496094 49.101562 C 53.1875 48.835938 52.730469 48.851562 52.441406 49.136719 C 52.230469 49.339844 51.925781 49.414062 51.644531 49.320312 C 51.367188 49.226562 51.164062 48.988281 51.121094 48.699219 C 49.609375 39.273438 53.441406 30.703125 53.441406 30.703125 C 56.125 31.988281 59.1875 31.816406 59.1875 31.816406 L 59.1875 49.0625 C 59.1875 49.347656 59.023438 49.609375 58.765625 49.730469 C 58.503906 49.851562 58.199219 49.816406 57.980469 49.632812 L 56.933594 48.773438 C 56.785156 48.652344 56.597656 48.589844 56.40625 48.601562 Z M 56.40625 48.601562 "/>
<path style=" stroke:none;fill-rule:nonzero;fill:rgb(10.196079%,73.725492%,61.176473%);fill-opacity:1;" d="M 9.996094 30.863281 C 8.375 31.636719 6.609375 32.066406 4.8125 32.117188 L 4.8125 48.675781 C 4.8125 48.976562 4.984375 49.253906 5.257812 49.382812 C 5.53125 49.511719 5.855469 49.46875 6.089844 49.277344 L 6.507812 48.9375 C 6.835938 48.664062 7.320312 48.707031 7.597656 49.035156 L 7.636719 49.078125 C 7.917969 49.410156 8.316406 49.613281 8.75 49.648438 C 9.183594 49.683594 9.613281 49.542969 9.945312 49.261719 C 10.25 48.996094 10.710938 49.011719 11 49.296875 C 11.140625 49.441406 11.335938 49.523438 11.542969 49.523438 C 11.929688 49.523438 12.261719 49.242188 12.320312 48.859375 C 13.828125 39.433594 9.996094 30.863281 9.996094 30.863281 Z M 9.996094 30.863281 "/>
<path style=" stroke:none;fill-rule:nonzero;fill:rgb(10.196079%,73.725492%,61.176473%);fill-opacity:1;" d="M 51.417969 11.40625 C 51.429688 12.320312 51.847656 13.183594 52.554688 13.765625 C 53.324219 14.40625 54.300781 14.753906 55.300781 14.742188 C 57.449219 14.742188 59.1875 13.25 59.1875 11.40625 L 59.1875 29.261719 C 57.609375 29.242188 56.054688 28.855469 54.65625 28.121094 C 48.101562 24.683594 46.574219 14.632812 46.574219 14.632812 C 46.898438 14.707031 47.234375 14.742188 47.570312 14.742188 C 49.714844 14.742188 51.417969 13.25 51.417969 11.40625 Z M 51.417969 11.40625 "/>
<path style=" stroke:none;fill-rule:nonzero;fill:rgb(10.196079%,73.725492%,61.176473%);fill-opacity:1;" d="M 16.863281 14.726562 L 16.867188 14.742188 C 16.867188 14.742188 15.730469 24.835938 9.296875 28.285156 C 7.914062 29.019531 6.375 29.410156 4.8125 29.421875 L 4.8125 11.40625 C 4.824219 12.320312 5.242188 13.183594 5.949219 13.765625 C 6.71875 14.40625 7.695312 14.753906 8.699219 14.742188 C 10.84375 14.742188 12.582031 13.25 12.582031 11.40625 C 12.597656 12.320312 13.011719 13.183594 13.71875 13.765625 C 14.488281 14.40625 15.464844 14.753906 16.464844 14.742188 C 16.601562 14.742188 16.734375 14.734375 16.863281 14.726562 Z M 16.863281 14.726562 "/>
<path style=" stroke:none;fill-rule:nonzero;fill:rgb(88.627452%,89.411765%,92.941177%);fill-opacity:1;" d="M 51.417969 9.609375 L 51.417969 11.53125 C 51.417969 13.375 49.714844 14.867188 47.570312 14.867188 C 47.234375 14.867188 46.898438 14.832031 46.574219 14.757812 C 45.925781 14.613281 45.328125 14.316406 44.824219 13.890625 C 44.113281 13.308594 43.699219 12.445312 43.683594 11.53125 L 43.683594 9.609375 Z M 51.417969 9.609375 "/>
<path style=" stroke:none;fill-rule:nonzero;fill:rgb(88.627452%,89.411765%,92.941177%);fill-opacity:1;" d="M 35.914062 9.609375 L 35.914062 11.53125 C 35.914062 13.375 34.175781 14.867188 32.03125 14.867188 C 31.027344 14.878906 30.054688 14.53125 29.285156 13.890625 C 28.574219 13.308594 28.160156 12.445312 28.144531 11.53125 L 28.121094 11.53125 L 28.121094 9.609375 Z M 35.914062 9.609375 "/>
<path style=" stroke:none;fill-rule:nonzero;fill:rgb(88.627452%,89.411765%,92.941177%);fill-opacity:1;" d="M 20.351562 9.609375 L 20.351562 11.53125 C 20.351562 13.257812 18.824219 14.679688 16.863281 14.851562 C 16.734375 14.859375 16.601562 14.867188 16.464844 14.867188 C 15.464844 14.878906 14.488281 14.53125 13.71875 13.890625 C 13.011719 13.308594 12.597656 12.445312 12.582031 11.53125 L 12.582031 9.609375 Z M 20.351562 9.609375 "/>
<path style=" stroke:none;fill-rule:nonzero;fill:rgb(80.000001%,82.745099%,87.450981%);fill-opacity:1;" d="M 59.1875 9.609375 L 59.1875 11.53125 C 59.1875 13.375 57.449219 14.867188 55.300781 14.867188 C 54.300781 14.878906 53.324219 14.53125 52.554688 13.890625 C 51.847656 13.308594 51.429688 12.445312 51.417969 11.53125 L 51.417969 9.609375 Z M 59.1875 9.609375 "/>
<path style=" stroke:none;fill-rule:nonzero;fill:rgb(80.000001%,82.745099%,87.450981%);fill-opacity:1;" d="M 43.683594 9.609375 L 43.683594 11.53125 C 43.683594 13.375 41.945312 14.867188 39.800781 14.867188 C 38.796875 14.878906 37.824219 14.53125 37.050781 13.890625 C 36.34375 13.308594 35.929688 12.445312 35.914062 11.53125 L 35.914062 9.609375 Z M 43.683594 9.609375 "/>
<path style=" stroke:none;fill-rule:nonzero;fill:rgb(80.000001%,82.745099%,87.450981%);fill-opacity:1;" d="M 28.121094 9.609375 L 28.121094 11.53125 C 28.121094 13.375 26.382812 14.867188 24.234375 14.867188 C 23.234375 14.878906 22.257812 14.53125 21.488281 13.890625 C 20.78125 13.308594 20.363281 12.445312 20.351562 11.53125 L 20.351562 9.609375 Z M 28.121094 9.609375 "/>
<path style=" stroke:none;fill-rule:nonzero;fill:rgb(42.745098%,45.490196%,52.549022%);fill-opacity:1;" d="M 56.023438 2.3125 L 7.976562 2.3125 C 6.230469 2.3125 4.8125 3.542969 4.8125 5.058594 L 4.8125 9.609375 L 59.1875 9.609375 L 59.1875 5.058594 C 59.1875 3.542969 57.769531 2.3125 56.023438 2.3125 Z M 56.023438 2.3125 "/>
<path style=" stroke:none;fill-rule:nonzero;fill:rgb(69.01961%,70.980394%,79.215688%);fill-opacity:1;" d="M 42.59375 4.515625 C 43.402344 4.519531 44.054688 5.179688 44.050781 5.988281 C 44.046875 6.796875 43.390625 7.449219 42.582031 7.449219 C 41.773438 7.445312 41.117188 6.789062 41.117188 5.980469 C 41.117188 5.589844 41.277344 5.214844 41.550781 4.941406 C 41.828125 4.664062 42.203125 4.511719 42.59375 4.515625 Z M 42.59375 4.515625 "/>
<path style=" stroke:none;fill-rule:nonzero;fill:rgb(69.01961%,70.980394%,79.215688%);fill-opacity:1;" d="M 35.53125 4.515625 C 36.339844 4.519531 36.992188 5.179688 36.988281 5.988281 C 36.984375 6.796875 36.328125 7.449219 35.519531 7.449219 C 34.710938 7.445312 34.054688 6.789062 34.054688 5.980469 C 34.058594 5.167969 34.71875 4.511719 35.53125 4.515625 Z M 35.53125 4.515625 "/>
<path style=" stroke:none;fill-rule:nonzero;fill:rgb(69.01961%,70.980394%,79.215688%);fill-opacity:1;" d="M 28.46875 4.515625 C 29.277344 4.519531 29.929688 5.179688 29.925781 5.988281 C 29.921875 6.796875 29.261719 7.449219 28.453125 7.449219 C 27.644531 7.445312 26.992188 6.789062 26.992188 5.980469 C 26.992188 5.589844 27.148438 5.214844 27.425781 4.941406 C 27.703125 4.664062 28.078125 4.511719 28.46875 4.515625 Z M 28.46875 4.515625 "/>
<path style=" stroke:none;fill-rule:nonzero;fill:rgb(69.01961%,70.980394%,79.215688%);fill-opacity:1;" d="M 21.40625 4.515625 C 22.214844 4.519531 22.867188 5.179688 22.859375 5.988281 C 22.855469 6.796875 22.199219 7.449219 21.390625 7.449219 C 20.582031 7.445312 19.925781 6.789062 19.925781 5.980469 C 19.929688 5.589844 20.085938 5.214844 20.363281 4.941406 C 20.640625 4.664062 21.015625 4.511719 21.40625 4.515625 Z M 21.40625 4.515625 "/>
<path style=" stroke:none;fill-rule:nonzero;fill:rgb(20.392157%,59.607846%,85.882354%);fill-opacity:1;" d="M 31.957031 30.921875 L 31.957031 36.859375 C 31.957031 38.265625 32.804688 40.058594 33.851562 40.855469 L 36.757812 43.070312 C 37.277344 43.464844 37.996094 43.464844 38.515625 43.070312 L 41.421875 40.855469 C 42.46875 40.058594 43.316406 38.273438 43.316406 36.859375 L 43.316406 30.929688 Z M 31.957031 30.921875 "/>
<path style=" stroke:none;fill-rule:nonzero;fill:rgb(69.01961%,70.980394%,79.215688%);fill-opacity:1;" d="M 7.9375 5.058594 C 7.9375 3.542969 9.355469 2.3125 11.101562 2.3125 L 7.976562 2.3125 C 6.230469 2.3125 4.8125 3.542969 4.8125 5.058594 L 4.8125 9.609375 L 7.9375 9.609375 Z M 7.9375 5.058594 "/>
<path style=" stroke:none;fill-rule:nonzero;fill:rgb(100%,96.470588%,33.333334%);fill-opacity:1;" d="M 4.8125 29.421875 L 4.8125 32.117188 C 5.484375 32.105469 6.152344 32.035156 6.8125 31.898438 L 6.8125 29.195312 C 6.15625 29.335938 5.484375 29.410156 4.8125 29.421875 Z M 4.8125 29.421875 "/>
<path style=" stroke:none;fill-rule:nonzero;fill:rgb(10.196079%,73.725492%,61.176473%);fill-opacity:1;" d="M 6.8125 31.898438 C 6.152344 32.035156 5.484375 32.105469 4.8125 32.117188 L 4.8125 48.675781 C 4.8125 48.976562 4.984375 49.253906 5.257812 49.382812 C 5.53125 49.511719 5.855469 49.46875 6.089844 49.277344 L 6.507812 48.9375 C 6.597656 48.859375 6.707031 48.808594 6.820312 48.78125 Z M 6.8125 31.898438 "/>
<path style=" stroke:none;fill-rule:nonzero;fill:rgb(10.196079%,73.725492%,61.176473%);fill-opacity:1;" d="M 6.8125 11.40625 L 4.8125 11.40625 L 4.8125 29.421875 C 5.484375 29.410156 6.15625 29.335938 6.8125 29.195312 Z M 6.8125 11.40625 "/>
<path style=" stroke:none;fill-rule:nonzero;fill:rgb(80.000001%,82.745099%,87.450981%);fill-opacity:1;" d="M 12.582031 9.609375 L 12.582031 11.53125 C 12.582031 13.375 10.84375 14.867188 8.699219 14.867188 C 7.695312 14.878906 6.71875 14.53125 5.949219 13.890625 C 5.242188 13.308594 4.824219 12.445312 4.8125 11.53125 L 4.8125 9.609375 Z M 12.582031 9.609375 "/>
<path style=" stroke:none;fill-rule:nonzero;fill:rgb(87.058824%,87.058824%,87.058824%);fill-opacity:1;" d="M 7.9375 11.53125 L 7.9375 9.609375 L 4.8125 9.609375 L 4.8125 11.53125 C 4.824219 12.445312 5.242188 13.308594 5.949219 13.890625 C 6.71875 14.53125 7.695312 14.878906 8.699219 14.867188 C 9.230469 14.867188 9.761719 14.773438 10.261719 14.585938 C 9.828125 14.425781 9.425781 14.1875 9.074219 13.890625 C 8.367188 13.308594 7.949219 12.445312 7.9375 11.53125 Z M 7.9375 11.53125 "/>
<path style=" stroke:none;fill-rule:nonzero;fill:rgb(100%,50.196081%,61.960787%);fill-opacity:1;" d="M 25.914062 31.152344 L 23.058594 25.945312 L 31.511719 21.316406 L 30.648438 19.738281 L 20.683594 25.195312 L 23.539062 30.402344 C 24.214844 31.636719 25.820312 32.800781 27.121094 32.996094 L 27.882812 33.109375 C 27.070312 32.613281 26.320312 31.894531 25.914062 31.152344 Z M 25.914062 31.152344 "/>
<path style=" stroke:none;fill-rule:nonzero;fill:rgb(84.705883%,100%,20%);fill-opacity:1;" d="M 34.457031 36.859375 L 34.457031 30.921875 L 31.957031 30.921875 L 31.957031 36.859375 C 31.957031 38.265625 32.804688 40.0625 33.851562 40.855469 L 36.757812 43.070312 C 37.277344 43.464844 37.996094 43.464844 38.515625 43.070312 L 38.886719 42.789062 L 36.351562 40.855469 C 35.304688 40.058594 34.457031 38.265625 34.457031 36.859375 Z M 34.457031 36.859375 "/>
<path style=" stroke:none;fill-rule:nonzero;fill:rgb(10.196079%,73.725492%,61.176473%);fill-opacity:1;" d="M 55.15625 31.335938 C 54.566406 31.175781 53.996094 30.964844 53.441406 30.703125 C 53.441406 30.703125 49.609375 39.273438 51.121094 48.699219 C 51.164062 48.988281 51.367188 49.226562 51.644531 49.320312 C 51.925781 49.414062 52.230469 49.339844 52.441406 49.136719 C 52.585938 48.992188 52.78125 48.914062 52.988281 48.914062 C 51.679688 40.675781 54.449219 33.097656 55.15625 31.335938 Z M 55.15625 31.335938 "/>
<path style=" stroke:none;fill-rule:nonzero;fill:rgb(10.196079%,73.725492%,61.176473%);fill-opacity:1;" d="M 48.472656 14.652344 C 47.84375 14.78125 47.195312 14.773438 46.574219 14.632812 C 46.574219 14.632812 48.101562 24.683594 54.65625 28.121094 C 56.054688 28.855469 57.609375 29.242188 59.1875 29.261719 L 59.1875 28.9375 C 58.261719 28.753906 57.367188 28.4375 56.53125 27.996094 C 50.433594 24.800781 48.6875 15.886719 48.472656 14.652344 Z M 48.472656 14.652344 "/>
<path style=" stroke:none;fill-rule:nonzero;fill:rgb(100%,90.588236%,45.09804%);fill-opacity:1;" d="M 54.65625 28.121094 L 54.65625 28.125 L 53.300781 30.617188 L 53.441406 30.703125 C 53.882812 30.910156 54.339844 31.089844 54.804688 31.234375 L 56.152344 28.757812 C 55.636719 28.585938 55.136719 28.375 54.65625 28.121094 Z M 54.65625 28.121094 "/>
<path style=" stroke:none;fill-rule:nonzero;fill:rgb(100%,90.588236%,45.09804%);fill-opacity:1;" d="M 56.15625 28.746094 L 56.15625 28.75 L 56.152344 28.757812 C 56.171875 28.761719 56.195312 28.769531 56.214844 28.777344 C 56.195312 28.765625 56.175781 28.757812 56.15625 28.746094 Z M 56.15625 28.746094 "/>
<path style=" stroke:none;fill-rule:nonzero;fill:rgb(15.686275%,25.882354%,40.784314%);fill-opacity:1;" d="M 33.742188 34.886719 C 34.15625 34.886719 34.492188 34.550781 34.492188 34.136719 C 34.492188 33.960938 34.582031 33.796875 34.734375 33.710938 C 34.882812 33.621094 35.070312 33.621094 35.222656 33.710938 C 35.371094 33.796875 35.464844 33.960938 35.460938 34.136719 C 35.460938 34.550781 35.796875 34.886719 36.210938 34.886719 C 36.625 34.886719 36.960938 34.550781 36.960938 34.136719 C 36.96875 33.421875 36.589844 32.761719 35.972656 32.402344 C 35.359375 32.046875 34.597656 32.046875 33.980469 32.402344 C 33.363281 32.761719 32.988281 33.421875 32.992188 34.136719 C 32.992188 34.550781 33.328125 34.886719 33.742188 34.886719 Z M 33.742188 34.886719 "/>
<path style=" stroke:none;fill-rule:nonzero;fill:rgb(15.686275%,25.882354%,40.784314%);fill-opacity:1;" d="M 38.945312 34.886719 C 39.359375 34.886719 39.695312 34.550781 39.695312 34.136719 C 39.691406 33.960938 39.78125 33.796875 39.933594 33.710938 C 40.085938 33.621094 40.269531 33.621094 40.421875 33.710938 C 40.574219 33.796875 40.664062 33.960938 40.660156 34.136719 C 40.660156 34.550781 40.996094 34.886719 41.410156 34.886719 C 41.824219 34.886719 42.160156 34.550781 42.160156 34.136719 C 42.167969 33.421875 41.789062 32.761719 41.175781 32.402344 C 40.558594 32.046875 39.796875 32.046875 39.179688 32.402344 C 38.566406 32.761719 38.1875 33.421875 38.195312 34.136719 C 38.195312 34.550781 38.53125 34.886719 38.945312 34.886719 Z M 38.945312 34.886719 "/>
<path style=" stroke:none;fill-rule:nonzero;fill:rgb(15.686275%,25.882354%,40.784314%);fill-opacity:1;" d="M 36.144531 38.0625 C 36.144531 37.648438 35.808594 37.3125 35.394531 37.3125 C 34.980469 37.3125 34.644531 37.648438 34.644531 38.0625 C 34.636719 39.136719 35.207031 40.132812 36.132812 40.671875 C 37.0625 41.210938 38.210938 41.210938 39.136719 40.671875 C 40.066406 40.132812 40.636719 39.136719 40.628906 38.0625 C 40.628906 37.648438 40.292969 37.3125 39.878906 37.3125 C 39.464844 37.3125 39.128906 37.648438 39.128906 38.0625 C 39.132812 38.597656 38.851562 39.097656 38.386719 39.367188 C 37.921875 39.636719 37.351562 39.636719 36.886719 39.367188 C 36.421875 39.097656 36.140625 38.597656 36.144531 38.0625 Z M 36.144531 38.0625 "/>
<path style=" stroke:none;fill-rule:nonzero;fill:rgb(15.686275%,25.882354%,40.784314%);fill-opacity:1;" d="M 19.964844 24.984375 C 19.90625 25.175781 19.929688 25.378906 20.027344 25.554688 L 22.882812 30.761719 C 23.671875 32.203125 25.484375 33.507812 27.007812 33.738281 L 30.621094 34.28125 C 30.730469 34.296875 30.84375 34.304688 30.953125 34.304688 C 31.039062 34.304688 31.125 34.300781 31.207031 34.289062 L 31.207031 36.859375 C 31.207031 38.5 32.167969 40.519531 33.394531 41.453125 L 36.304688 43.664062 C 37.09375 44.261719 38.183594 44.261719 38.972656 43.664062 L 41.878906 41.453125 C 43.105469 40.519531 44.066406 38.5 44.066406 36.859375 L 44.066406 30.929688 C 44.066406 30.515625 43.730469 30.179688 43.316406 30.179688 L 34.21875 30.171875 L 34.445312 29.660156 C 35.074219 28.25 34.945312 26.019531 34.15625 24.582031 L 31.304688 19.378906 C 31.105469 19.015625 30.652344 18.882812 30.289062 19.082031 L 20.324219 24.535156 C 20.148438 24.632812 20.019531 24.792969 19.964844 24.984375 Z M 42.566406 31.679688 L 42.566406 36.859375 C 42.566406 38.042969 41.835938 39.601562 40.96875 40.257812 L 38.0625 42.472656 C 37.808594 42.664062 37.464844 42.664062 37.210938 42.472656 L 34.304688 40.257812 C 33.453125 39.613281 32.707031 38.023438 32.707031 36.859375 L 32.707031 31.671875 Z M 30.351562 20.757812 L 32.84375 25.300781 C 33.410156 26.339844 33.519531 28.054688 33.074219 29.050781 L 32.578125 30.171875 L 31.957031 30.171875 C 31.542969 30.171875 31.207031 30.507812 31.207031 30.921875 L 31.207031 32.757812 C 31.09375 32.800781 30.96875 32.816406 30.84375 32.796875 L 27.234375 32.253906 C 26.175781 32.097656 24.757812 31.0625 24.199219 30.042969 L 21.703125 25.492188 Z M 30.351562 20.757812 "/>
<path style=" stroke:none;fill-rule:nonzero;fill:rgb(15.686275%,25.882354%,40.784314%);fill-opacity:1;" d="M 24.605469 26.910156 C 24.476562 26.675781 24.5625 26.382812 24.796875 26.253906 C 25.03125 26.125 25.324219 26.210938 25.453125 26.445312 C 25.652344 26.808594 26.109375 26.941406 26.472656 26.742188 C 26.835938 26.542969 26.96875 26.085938 26.769531 25.722656 C 26.242188 24.761719 25.035156 24.410156 24.078125 24.9375 C 23.117188 25.464844 22.761719 26.671875 23.289062 27.632812 C 23.488281 27.996094 23.945312 28.128906 24.308594 27.929688 C 24.671875 27.730469 24.804688 27.273438 24.605469 26.910156 Z M 24.605469 26.910156 "/>
<path style=" stroke:none;fill-rule:nonzero;fill:rgb(15.686275%,25.882354%,40.784314%);fill-opacity:1;" d="M 28.234375 25.527344 C 28.5 25.527344 28.742188 25.386719 28.878906 25.160156 C 29.011719 24.929688 29.019531 24.648438 28.890625 24.414062 C 28.804688 24.265625 28.804688 24.078125 28.894531 23.925781 C 28.984375 23.777344 29.148438 23.6875 29.324219 23.691406 C 29.5 23.699219 29.65625 23.796875 29.738281 23.949219 C 29.9375 24.3125 30.394531 24.445312 30.757812 24.246094 C 31.121094 24.046875 31.253906 23.59375 31.054688 23.230469 C 30.527344 22.269531 29.320312 21.917969 28.359375 22.445312 C 27.398438 22.96875 27.046875 24.175781 27.574219 25.136719 C 27.707031 25.378906 27.960938 25.527344 28.234375 25.527344 Z M 28.234375 25.527344 "/>
<path style=" stroke:none;fill-rule:nonzero;fill:rgb(15.686275%,25.882354%,40.784314%);fill-opacity:1;" d="M 28.257812 31.773438 C 28.523438 31.773438 28.765625 31.632812 28.902344 31.40625 C 29.035156 31.175781 29.042969 30.894531 28.914062 30.664062 C 28.679688 30.246094 28.6875 29.738281 28.933594 29.332031 C 29.179688 28.925781 29.625 28.679688 30.101562 28.691406 C 30.578125 28.703125 31.007812 28.972656 31.234375 29.390625 C 31.433594 29.753906 31.890625 29.886719 32.253906 29.6875 C 32.617188 29.488281 32.75 29.03125 32.550781 28.667969 C 32.066406 27.777344 31.144531 27.214844 30.132812 27.191406 C 29.121094 27.167969 28.175781 27.6875 27.652344 28.550781 C 27.128906 29.417969 27.109375 30.5 27.597656 31.382812 C 27.730469 31.625 27.984375 31.773438 28.257812 31.773438 Z M 28.257812 31.773438 "/>
<path style=" stroke:none;fill-rule:nonzero;fill:rgb(15.686275%,25.882354%,40.784314%);fill-opacity:1;" d="M 13.253906 16.34375 C 13.253906 15.929688 12.917969 15.59375 12.503906 15.59375 L 12.5 15.59375 C 12.300781 15.59375 12.113281 15.671875 11.972656 15.8125 C 11.832031 15.953125 11.753906 16.144531 11.753906 16.34375 C 11.753906 17.808594 11.441406 19.253906 10.835938 20.585938 C 10.085938 22.222656 8.917969 23.628906 7.449219 24.671875 C 7.230469 24.824219 7.109375 25.085938 7.132812 25.355469 C 7.160156 25.621094 7.324219 25.855469 7.570312 25.96875 C 7.816406 26.078125 8.101562 26.050781 8.320312 25.894531 C 10.003906 24.699219 11.34375 23.085938 12.203125 21.207031 C 12.894531 19.679688 13.253906 18.019531 13.253906 16.34375 Z M 13.253906 16.34375 "/>
<path style=" stroke:none;fill-rule:nonzero;fill:rgb(15.686275%,25.882354%,40.784314%);fill-opacity:1;" d="M 9.546875 20.089844 C 9.929688 19.238281 10.128906 18.316406 10.128906 17.382812 C 10.128906 16.96875 9.792969 16.636719 9.378906 16.636719 C 9.179688 16.636719 8.988281 16.714844 8.847656 16.855469 C 8.707031 16.996094 8.628906 17.1875 8.628906 17.386719 C 8.636719 19.011719 7.847656 20.535156 6.519531 21.46875 C 6.179688 21.710938 6.101562 22.179688 6.34375 22.515625 C 6.582031 22.851562 7.050781 22.933594 7.386719 22.691406 C 8.324219 22.03125 9.066406 21.132812 9.546875 20.089844 Z M 9.546875 20.089844 "/>
<path style=" stroke:none;fill-rule:nonzero;fill:rgb(15.686275%,25.882354%,40.784314%);fill-opacity:1;" d="M 56.023438 1.5625 L 7.976562 1.5625 C 5.820312 1.5625 4.0625 3.128906 4.0625 5.058594 L 4.0625 48.628906 C 4.054688 49.234375 4.394531 49.789062 4.9375 50.058594 C 5.472656 50.316406 6.109375 50.238281 6.566406 49.859375 L 6.984375 49.515625 C 6.996094 49.503906 7.015625 49.507812 7.027344 49.519531 L 7.035156 49.53125 C 7.386719 49.953125 7.875 50.246094 8.414062 50.355469 C 9.132812 50.5 9.875 50.308594 10.429688 49.832031 C 10.445312 49.820312 10.460938 49.820312 10.472656 49.832031 C 10.835938 50.191406 11.355469 50.34375 11.855469 50.238281 C 11.460938 50.785156 11.25 51.445312 11.25 52.121094 L 11.25 52.632812 L 9.488281 52.632812 C 7.699219 52.632812 6.25 54.082031 6.25 55.871094 L 6.25 61.6875 C 6.25 62.101562 6.585938 62.4375 7 62.4375 L 57 62.4375 C 57.414062 62.4375 57.75 62.101562 57.75 61.6875 L 57.75 55.871094 C 57.75 54.082031 56.300781 52.632812 54.511719 52.632812 L 52.75 52.632812 L 52.75 52.121094 C 52.75 51.386719 52.5 50.675781 52.042969 50.101562 C 52.390625 50.070312 52.71875 49.917969 52.964844 49.671875 C 52.976562 49.660156 52.996094 49.660156 53.007812 49.667969 C 53.011719 49.671875 53.011719 49.675781 53.015625 49.675781 C 53.578125 50.152344 54.324219 50.34375 55.042969 50.191406 C 55.578125 50.078125 56.054688 49.789062 56.402344 49.371094 L 56.414062 49.359375 C 56.414062 49.355469 56.421875 49.355469 56.425781 49.351562 C 56.433594 49.351562 56.441406 49.351562 56.445312 49.351562 C 56.449219 49.351562 56.453125 49.351562 56.457031 49.355469 L 57.503906 50.214844 C 57.769531 50.433594 58.101562 50.554688 58.445312 50.554688 C 58.667969 50.554688 58.886719 50.503906 59.085938 50.410156 C 59.613281 50.144531 59.945312 49.601562 59.9375 49.011719 L 59.9375 5.058594 C 59.9375 3.128906 58.179688 1.5625 56.023438 1.5625 Z M 5.5625 10.363281 L 11.832031 10.363281 L 11.832031 11.40625 C 11.832031 12.832031 10.425781 13.992188 8.695312 13.992188 C 6.96875 13.992188 5.5625 12.832031 5.5625 11.40625 Z M 5.5625 14.414062 C 6.453125 15.121094 7.558594 15.5 8.695312 15.492188 C 10.320312 15.492188 11.753906 14.75 12.582031 13.628906 C 13.328125 14.640625 14.566406 15.34375 15.996094 15.472656 C 15.777344 16.722656 15.226562 19.234375 14.054688 21.726562 C 12.050781 25.96875 9.199219 28.289062 5.5625 28.628906 Z M 24.234375 15.492188 C 25.871094 15.492188 27.308594 14.742188 28.132812 13.613281 C 28.957031 14.742188 30.398438 15.492188 32.03125 15.492188 C 33.65625 15.492188 35.089844 14.75 35.914062 13.628906 C 36.742188 14.75 38.175781 15.492188 39.800781 15.492188 C 41.425781 15.492188 42.855469 14.75 43.683594 13.628906 C 44.25 14.375 45.027344 14.929688 45.914062 15.222656 C 46.394531 17.648438 47.199219 20.003906 48.304688 22.214844 C 49.734375 25.023438 51.539062 27.101562 53.648438 28.402344 L 52.582031 30.816406 C 51.824219 32.679688 49.03125 40.332031 50.375 48.785156 C 50.386719 48.863281 50.40625 48.941406 50.429688 49.015625 C 50.132812 48.929688 49.824219 48.882812 49.511719 48.882812 L 44.488281 48.882812 C 43.527344 48.882812 42.613281 49.3125 42 50.050781 C 41.386719 49.3125 40.472656 48.882812 39.511719 48.882812 L 34.488281 48.882812 C 33.527344 48.882812 32.613281 49.3125 32 50.050781 C 31.386719 49.3125 30.472656 48.882812 29.511719 48.882812 L 24.488281 48.882812 C 23.527344 48.882812 22.613281 49.3125 22 50.050781 C 21.386719 49.3125 20.472656 48.882812 19.511719 48.882812 L 14.488281 48.882812 C 13.960938 48.882812 13.445312 49.011719 12.980469 49.257812 C 13.019531 49.15625 13.046875 49.050781 13.066406 48.945312 C 14.210938 41.730469 12.34375 35.097656 11.304688 32.152344 C 10.929688 31.089844 10.589844 30.019531 10.289062 28.9375 L 10.203125 28.621094 C 12.3125 27.3125 14.082031 25.199219 15.425781 22.332031 C 16.4375 20.121094 17.148438 17.78125 17.535156 15.382812 C 18.65625 15.160156 19.65625 14.539062 20.351562 13.628906 C 21.179688 14.75 22.609375 15.492188 24.234375 15.492188 Z M 21.101562 11.40625 L 21.101562 10.363281 L 27.371094 10.363281 L 27.371094 11.40625 C 27.371094 12.832031 25.964844 13.992188 24.234375 13.992188 C 22.507812 13.992188 21.101562 12.832031 21.101562 11.40625 Z M 28.871094 11.40625 L 28.871094 10.363281 L 35.164062 10.363281 L 35.164062 11.40625 C 35.164062 12.832031 33.757812 13.992188 32.03125 13.992188 C 30.300781 13.992188 28.894531 12.832031 28.894531 11.40625 Z M 36.664062 11.40625 L 36.664062 10.363281 L 42.933594 10.363281 L 42.933594 11.40625 C 42.933594 12.832031 41.527344 13.992188 39.800781 13.992188 C 38.070312 13.992188 36.664062 12.832031 36.664062 11.40625 Z M 44.433594 11.40625 L 44.433594 10.363281 L 50.667969 10.363281 L 50.667969 11.40625 C 50.667969 12.832031 49.277344 13.992188 47.570312 13.992188 C 45.839844 13.992188 44.433594 12.832031 44.433594 11.40625 Z M 19.601562 11.40625 C 19.601562 12.832031 18.195312 13.992188 16.464844 13.992188 C 14.738281 13.992188 13.332031 12.832031 13.332031 11.40625 L 13.332031 10.363281 L 19.601562 10.363281 Z M 5.5625 30.132812 C 6.695312 30.042969 7.808594 29.769531 8.855469 29.324219 L 9.214844 30.394531 C 8.050781 30.882812 6.820312 31.195312 5.5625 31.324219 Z M 11.578125 48.742188 C 11.578125 48.753906 11.570312 48.765625 11.554688 48.769531 C 11.542969 48.777344 11.53125 48.773438 11.523438 48.761719 C 11.425781 48.664062 11.3125 48.582031 11.191406 48.515625 L 11.191406 43.65625 C 11.191406 43.242188 10.855469 42.90625 10.441406 42.90625 C 10.027344 42.90625 9.691406 43.242188 9.691406 43.65625 L 9.691406 48.523438 C 9.609375 48.570312 9.53125 48.628906 9.457031 48.691406 C 9.277344 48.84375 9.046875 48.917969 8.808594 48.898438 C 8.574219 48.882812 8.359375 48.769531 8.207031 48.589844 L 8.167969 48.546875 C 8.070312 48.433594 7.957031 48.332031 7.828125 48.25 L 7.828125 40.796875 C 7.828125 40.382812 7.492188 40.046875 7.078125 40.046875 C 6.664062 40.046875 6.328125 40.382812 6.328125 40.796875 L 6.328125 48.167969 L 5.613281 48.699219 C 5.601562 48.707031 5.597656 48.710938 5.578125 48.703125 C 5.5625 48.695312 5.5625 48.6875 5.5625 48.675781 L 5.5625 32.832031 C 6.945312 32.707031 8.304688 32.382812 9.589844 31.863281 C 10.429688 34.054688 12.792969 41.148438 11.578125 48.742188 Z M 16.25 60.9375 L 7.75 60.9375 L 7.75 55.871094 C 7.75 54.910156 8.527344 54.132812 9.488281 54.132812 L 14.511719 54.132812 C 15.472656 54.132812 16.25 54.910156 16.25 55.871094 Z M 17 53.800781 C 16.386719 53.0625 15.472656 52.632812 14.511719 52.632812 L 12.75 52.632812 L 12.75 52.121094 C 12.75 51.160156 13.527344 50.382812 14.488281 50.382812 L 19.511719 50.382812 C 20.472656 50.382812 21.25 51.160156 21.25 52.121094 L 21.25 52.632812 L 19.488281 52.632812 C 18.527344 52.632812 17.613281 53.0625 17 53.800781 Z M 26.25 60.9375 L 17.75 60.9375 L 17.75 55.871094 C 17.75 54.910156 18.527344 54.132812 19.488281 54.132812 L 24.511719 54.132812 C 25.472656 54.132812 26.25 54.910156 26.25 55.871094 Z M 27 53.800781 C 26.386719 53.0625 25.472656 52.632812 24.511719 52.632812 L 22.75 52.632812 L 22.75 52.121094 C 22.75 51.160156 23.527344 50.382812 24.488281 50.382812 L 29.511719 50.382812 C 30.472656 50.382812 31.25 51.160156 31.25 52.121094 L 31.25 52.632812 L 29.488281 52.632812 C 28.527344 52.632812 27.613281 53.0625 27 53.800781 Z M 36.25 60.9375 L 27.75 60.9375 L 27.75 55.871094 C 27.75 54.910156 28.527344 54.132812 29.488281 54.132812 L 34.511719 54.132812 C 35.472656 54.132812 36.25 54.910156 36.25 55.871094 Z M 37 53.800781 C 36.386719 53.0625 35.472656 52.632812 34.511719 52.632812 L 32.75 52.632812 L 32.75 52.121094 C 32.75 51.160156 33.527344 50.382812 34.488281 50.382812 L 39.511719 50.382812 C 40.472656 50.382812 41.25 51.160156 41.25 52.121094 L 41.25 52.632812 L 39.488281 52.632812 C 38.527344 52.632812 37.613281 53.0625 37 53.800781 Z M 46.25 60.9375 L 37.75 60.9375 L 37.75 55.871094 C 37.75 54.910156 38.527344 54.132812 39.488281 54.132812 L 44.511719 54.132812 C 45.472656 54.132812 46.25 54.910156 46.25 55.871094 Z M 47 53.800781 C 46.386719 53.0625 45.472656 52.632812 44.511719 52.632812 L 42.75 52.632812 L 42.75 52.121094 C 42.75 51.160156 43.527344 50.382812 44.488281 50.382812 L 49.511719 50.382812 C 50.472656 50.382812 51.25 51.160156 51.25 52.121094 L 51.25 52.632812 L 49.488281 52.632812 C 48.527344 52.632812 47.613281 53.0625 47 53.800781 Z M 54.511719 54.132812 C 55.472656 54.132812 56.25 54.910156 56.25 55.871094 L 56.25 60.9375 L 47.75 60.9375 L 47.75 55.871094 C 47.75 54.910156 48.527344 54.132812 49.488281 54.132812 Z M 58.4375 49.039062 L 57.15625 48.027344 L 57.15625 40.550781 C 57.15625 40.136719 56.820312 39.800781 56.40625 39.800781 C 55.992188 39.800781 55.65625 40.136719 55.65625 40.550781 L 55.65625 48.0625 C 55.511719 48.148438 55.378906 48.257812 55.269531 48.386719 L 55.234375 48.429688 C 55.082031 48.609375 54.863281 48.71875 54.628906 48.738281 C 54.394531 48.757812 54.160156 48.683594 53.984375 48.53125 L 53.972656 48.519531 C 53.914062 48.472656 53.855469 48.429688 53.792969 48.390625 L 53.792969 43.285156 C 53.792969 42.871094 53.457031 42.535156 53.042969 42.535156 C 52.628906 42.535156 52.292969 42.871094 52.292969 43.285156 L 52.292969 48.328125 C 52.152344 48.402344 52.027344 48.492188 51.914062 48.601562 C 51.90625 48.613281 51.894531 48.613281 51.886719 48.609375 C 51.871094 48.605469 51.859375 48.59375 51.859375 48.578125 C 50.644531 40.996094 53.015625 33.882812 53.851562 31.695312 C 55.636719 32.386719 57.4375 32.542969 58.4375 32.570312 Z M 58.4375 31.070312 C 57.539062 31.039062 55.910156 30.894531 54.339844 30.277344 L 54.976562 29.101562 C 56.074219 29.582031 57.242188 29.878906 58.4375 29.972656 Z M 58.4375 28.46875 C 54.78125 28.128906 51.828125 25.8125 49.65625 21.570312 C 48.695312 19.636719 47.972656 17.597656 47.507812 15.492188 C 47.527344 15.492188 47.546875 15.492188 47.570312 15.492188 C 49.179688 15.492188 50.601562 14.753906 51.421875 13.636719 C 52.25 14.753906 53.679688 15.492188 55.304688 15.492188 C 56.441406 15.5 57.546875 15.121094 58.4375 14.414062 Z M 58.4375 11.40625 C 58.4375 12.832031 57.03125 13.992188 55.304688 13.992188 C 53.574219 13.992188 52.167969 12.832031 52.167969 11.40625 L 52.167969 10.363281 L 58.4375 10.363281 Z M 58.4375 8.863281 L 5.5625 8.863281 L 5.5625 5.058594 C 5.5625 3.957031 6.644531 3.0625 7.976562 3.0625 L 56.023438 3.0625 C 57.355469 3.0625 58.4375 3.957031 58.4375 5.058594 Z M 58.4375 8.863281 "/>
<path style=" stroke:none;fill-rule:nonzero;fill:rgb(15.686275%,25.882354%,40.784314%);fill-opacity:1;" d="M 55.988281 24.511719 C 53.28125 22.601562 51.675781 19.496094 51.6875 16.183594 C 51.6875 15.769531 51.351562 15.433594 50.9375 15.433594 C 50.523438 15.433594 50.1875 15.765625 50.1875 16.179688 C 50.175781 19.980469 52.015625 23.542969 55.121094 25.734375 C 55.457031 25.972656 55.925781 25.894531 56.167969 25.554688 C 56.40625 25.21875 56.328125 24.75 55.988281 24.511719 Z M 55.988281 24.511719 "/>
<path style=" stroke:none;fill-rule:nonzero;fill:rgb(15.686275%,25.882354%,40.784314%);fill-opacity:1;" d="M 54.808594 17.226562 C 54.808594 17.027344 54.730469 16.835938 54.589844 16.695312 C 54.449219 16.554688 54.257812 16.472656 54.058594 16.472656 C 53.644531 16.472656 53.308594 16.808594 53.308594 17.222656 C 53.304688 19.332031 54.328125 21.316406 56.050781 22.53125 C 56.269531 22.691406 56.554688 22.71875 56.800781 22.605469 C 57.046875 22.496094 57.214844 22.261719 57.238281 21.992188 C 57.261719 21.722656 57.140625 21.464844 56.917969 21.308594 C 55.589844 20.375 54.804688 18.847656 54.808594 17.226562 Z M 54.808594 17.226562 "/>
<path style=" stroke:none;fill-rule:nonzero;fill:rgb(15.686275%,25.882354%,40.784314%);fill-opacity:1;" d="M 21.40625 3.761719 C 20.183594 3.769531 19.195312 4.765625 19.199219 5.988281 C 19.203125 7.210938 20.195312 8.199219 21.417969 8.199219 C 22.640625 8.195312 23.632812 7.203125 23.632812 5.980469 C 23.628906 4.753906 22.632812 3.761719 21.40625 3.761719 Z M 21.40625 6.699219 C 21.011719 6.691406 20.695312 6.367188 20.699219 5.972656 C 20.703125 5.578125 21.023438 5.261719 21.417969 5.261719 C 21.8125 5.265625 22.132812 5.585938 22.132812 5.980469 C 22.128906 6.378906 21.804688 6.699219 21.40625 6.699219 Z M 21.40625 6.699219 "/>
<path style=" stroke:none;fill-rule:nonzero;fill:rgb(15.686275%,25.882354%,40.784314%);fill-opacity:1;" d="M 28.46875 3.761719 C 27.246094 3.769531 26.257812 4.765625 26.261719 5.988281 C 26.265625 7.210938 27.257812 8.199219 28.480469 8.199219 C 29.703125 8.195312 30.695312 7.203125 30.695312 5.980469 C 30.691406 4.753906 29.695312 3.761719 28.46875 3.761719 Z M 28.46875 6.699219 C 28.074219 6.691406 27.757812 6.367188 27.761719 5.972656 C 27.765625 5.578125 28.085938 5.261719 28.480469 5.261719 C 28.875 5.265625 29.195312 5.585938 29.195312 5.980469 C 29.191406 6.378906 28.867188 6.699219 28.46875 6.699219 Z M 28.46875 6.699219 "/>
<path style=" stroke:none;fill-rule:nonzero;fill:rgb(15.686275%,25.882354%,40.784314%);fill-opacity:1;" d="M 42.59375 3.761719 C 41.371094 3.769531 40.382812 4.765625 40.386719 5.988281 C 40.390625 7.210938 41.386719 8.199219 42.609375 8.199219 C 43.832031 8.195312 44.820312 7.203125 44.820312 5.980469 C 44.816406 4.753906 43.820312 3.761719 42.59375 3.761719 Z M 42.59375 6.699219 C 42.199219 6.691406 41.882812 6.367188 41.886719 5.972656 C 41.890625 5.578125 42.214844 5.261719 42.609375 5.261719 C 43.003906 5.265625 43.320312 5.585938 43.320312 5.980469 C 43.320312 6.378906 42.992188 6.699219 42.59375 6.699219 Z M 42.59375 6.699219 "/>
<path style=" stroke:none;fill-rule:nonzero;fill:rgb(15.686275%,25.882354%,40.784314%);fill-opacity:1;" d="M 35.53125 3.761719 C 34.308594 3.769531 33.320312 4.765625 33.324219 5.988281 C 33.328125 7.210938 34.320312 8.199219 35.542969 8.199219 C 36.769531 8.195312 37.757812 7.203125 37.757812 5.980469 C 37.753906 4.753906 36.757812 3.761719 35.53125 3.761719 Z M 35.53125 6.699219 C 35.136719 6.691406 34.820312 6.367188 34.824219 5.972656 C 34.828125 5.578125 35.148438 5.261719 35.542969 5.261719 C 35.941406 5.265625 36.257812 5.585938 36.257812 5.980469 C 36.253906 6.378906 35.929688 6.699219 35.53125 6.699219 Z M 35.53125 6.699219 "/>
</g>
</svg>
