<?xml version="1.0" encoding="UTF-8"?>
<svg xmlns="http://www.w3.org/2000/svg" xmlns:xlink="http://www.w3.org/1999/xlink" viewBox="0 0 64 64" width="64px" height="64px">
<g id="surface14018960">
<path style=" stroke:none;fill-rule:nonzero;fill:rgb(100%,100%,100%);fill-opacity:1;" d="M 51.125 1.855469 C 50.28125 1.855469 49.640625 2.492188 49.128906 3.910156 L 26.023438 14 L 21.355469 14 C 20.359375 14.003906 19.402344 14.40625 18.703125 15.117188 C 18.003906 15.828125 17.617188 16.785156 17.625 17.785156 L 17.625 22.625 L 10.375 22.625 C 9.824219 22.625 9.375 23.074219 9.375 23.625 L 9.375 51.625 C 9.375 52.175781 9.824219 52.625 10.375 52.625 L 15.875 52.625 L 15.875 55.125 L 14.078125 55.125 C 13.824219 55.117188 13.574219 55.214844 13.394531 55.394531 C 13.214844 55.578125 13.117188 55.824219 13.125 56.082031 L 13.125 61.144531 C 13.117188 61.402344 13.210938 61.652344 13.390625 61.839844 C 13.570312 62.023438 13.820312 62.128906 14.078125 62.125 L 49.167969 62.125 C 49.425781 62.128906 49.675781 62.023438 49.855469 61.839844 C 50.035156 61.65625 50.132812 61.402344 50.125 61.144531 L 50.125 56.082031 C 50.132812 55.824219 50.035156 55.578125 49.851562 55.394531 C 49.671875 55.214844 49.421875 55.117188 49.167969 55.125 L 47.375 55.125 L 47.375 42.203125 C 47.378906 41.945312 47.273438 41.699219 47.085938 41.515625 C 46.902344 41.335938 46.648438 41.242188 46.390625 41.25 L 16.855469 41.25 C 16.597656 41.242188 16.34375 41.335938 16.160156 41.519531 C 15.976562 41.699219 15.871094 41.945312 15.875 42.203125 L 15.875 47.75 L 14.125 47.75 L 14.125 27.5 L 17.625 27.5 L 17.625 31.382812 C 17.617188 31.695312 17.757812 31.996094 18.007812 32.1875 L 28.046875 39.605469 L 28.09375 39.53125 C 29.507812 41.023438 31.710938 41.460938 33.585938 40.621094 C 35.460938 39.777344 36.601562 37.84375 36.425781 35.792969 C 36.25 33.746094 34.800781 32.03125 32.808594 31.519531 C 30.816406 31.007812 28.722656 31.8125 27.582031 33.523438 L 24 30.5 L 24 22.085938 C 24 21.871094 24.191406 21.75 24.40625 21.75 L 26.027344 21.75 L 49.152344 31.792969 C 49.660156 33.167969 50.292969 33.777344 51.125 33.777344 C 52.441406 33.777344 53.261719 32.210938 53.871094 28.554688 C 54.351562 25.675781 54.617188 21.859375 54.617188 17.8125 C 54.617188 13.765625 54.351562 9.949219 53.871094 7.070312 C 53.261719 3.417969 52.441406 1.855469 51.125 1.855469 Z M 51.125 4.277344 C 51.75 5.808594 52.617188 10.414062 52.617188 17.808594 C 52.617188 25.203125 51.75 29.808594 51.125 31.339844 C 50.496094 29.808594 49.632812 25.203125 49.632812 17.808594 C 49.632812 10.414062 50.496094 5.808594 51.125 4.277344 Z M 48.496094 6.371094 C 48.457031 6.59375 48.414062 6.828125 48.375 7.070312 C 47.894531 9.945312 47.628906 13.761719 47.628906 17.808594 C 47.628906 21.855469 47.894531 25.671875 48.375 28.546875 C 48.417969 28.8125 48.464844 29.074219 48.507812 29.316406 L 26.632812 19.808594 C 26.503906 19.761719 26.371094 19.742188 26.234375 19.75 L 24.40625 19.75 C 23.089844 19.75 22 20.769531 22 22.085938 L 22 30.964844 C 22.003906 31.261719 22.136719 31.539062 22.363281 31.730469 L 26.820312 35.496094 C 26.792969 35.722656 26.785156 35.957031 26.792969 36.1875 L 19.625 30.875 L 19.625 17.785156 C 19.613281 17.316406 19.792969 16.867188 20.117188 16.53125 C 20.441406 16.195312 20.886719 16.003906 21.355469 16 L 26.234375 16 C 26.371094 16 26.507812 15.972656 26.632812 15.921875 Z M 11.375 24.625 L 17.625 24.625 L 17.625 25.5 L 13.125 25.5 C 12.574219 25.5 12.125 25.949219 12.125 26.5 L 12.125 48.75 C 12.125 49.300781 12.574219 49.75 13.125 49.75 L 15.875 49.75 L 15.875 50.625 L 11.375 50.625 Z M 31.617188 33.367188 C 32.769531 33.367188 33.808594 34.0625 34.25 35.125 C 34.6875 36.1875 34.445312 37.414062 33.632812 38.226562 C 32.816406 39.042969 31.59375 39.285156 30.527344 38.84375 C 29.464844 38.40625 28.769531 37.367188 28.769531 36.214844 C 28.773438 34.644531 30.046875 33.371094 31.617188 33.367188 Z M 17.875 43.25 L 45.375 43.25 L 45.375 55.125 L 17.875 55.125 Z M 21 45.375 C 20.449219 45.375 20 45.824219 20 46.375 L 20 51.875 C 20 52.425781 20.449219 52.875 21 52.875 L 42.25 52.875 C 42.800781 52.875 43.25 52.425781 43.25 51.875 L 43.25 46.375 C 43.25 45.824219 42.800781 45.375 42.25 45.375 Z M 22 47.375 L 41.25 47.375 L 41.25 50.875 L 22 50.875 Z M 15.125 57.125 L 48.125 57.125 L 48.125 60.125 L 15.125 60.125 Z M 15.125 57.125 "/>
</g>
</svg>
