<?xml version="1.0" encoding="UTF-8"?>
<svg xmlns="http://www.w3.org/2000/svg" xmlns:xlink="http://www.w3.org/1999/xlink" viewBox="0 0 64 64" width="64px" height="64px">
<g id="surface41691711">
<path style=" stroke:none;fill-rule:nonzero;fill:rgb(20.392157%,59.607846%,85.882354%);fill-opacity:1;" d="M 33.332031 13.332031 C 33.332031 15.542969 31.542969 17.332031 29.332031 17.332031 C 27.125 17.332031 25.332031 15.542969 25.332031 13.332031 C 25.332031 11.125 27.125 9.332031 29.332031 9.332031 C 31.542969 9.332031 33.332031 11.125 33.332031 13.332031 Z M 33.332031 13.332031 "/>
<path style=" stroke:none;fill-rule:nonzero;fill:rgb(20.392157%,59.607846%,85.882354%);fill-opacity:1;" d="M 30.667969 57.332031 C 30.667969 59.542969 28.875 61.332031 26.667969 61.332031 C 24.457031 61.332031 22.667969 59.542969 22.667969 57.332031 C 22.667969 55.125 24.457031 53.332031 26.667969 53.332031 C 28.875 53.332031 30.667969 55.125 30.667969 57.332031 Z M 30.667969 57.332031 "/>
<path style=" stroke:none;fill-rule:nonzero;fill:rgb(25.490198%,37.64706%,100%);fill-opacity:1;" d="M 18.667969 6.667969 C 18.667969 10.347656 15.683594 13.332031 12 13.332031 C 8.316406 13.332031 5.332031 10.347656 5.332031 6.667969 C 5.332031 2.984375 8.316406 0 12 0 C 15.683594 0 18.667969 2.984375 18.667969 6.667969 Z M 18.667969 6.667969 "/>
<path style=" stroke:none;fill-rule:nonzero;fill:rgb(25.490198%,37.64706%,100%);fill-opacity:1;" d="M 58.667969 52 C 58.667969 55.683594 55.683594 58.667969 52 58.667969 C 48.316406 58.667969 45.332031 55.683594 45.332031 52 C 45.332031 48.316406 48.316406 45.332031 52 45.332031 C 55.683594 45.332031 58.667969 48.316406 58.667969 52 Z M 58.667969 52 "/>
<path style=" stroke:none;fill-rule:nonzero;fill:rgb(20.392157%,59.607846%,85.882354%);fill-opacity:1;" d="M 54.667969 38.667969 C 62.667969 34.667969 62.667969 29.332031 62.667969 29.332031 C 62.667969 27.125 60.875 25.332031 58.667969 25.332031 C 56.457031 25.332031 54.667969 27.125 54.667969 29.332031 C 54.667969 27.125 52.875 25.332031 50.667969 25.332031 C 48.457031 25.332031 46.667969 27.125 46.667969 29.332031 C 46.667969 29.332031 46.667969 34.667969 54.667969 38.667969 Z M 54.667969 38.667969 "/>
<path style=" stroke:none;fill-rule:nonzero;fill:rgb(10.196079%,73.725492%,61.176473%);fill-opacity:1;" d="M 52 29.332031 C 52.003906 28.203125 52.488281 27.125 53.332031 26.371094 C 52.164062 25.308594 50.476562 25.035156 49.035156 25.675781 C 47.589844 26.316406 46.660156 27.753906 46.667969 29.332031 C 46.667969 29.332031 46.667969 34.667969 54.667969 38.667969 C 55.589844 38.207031 56.484375 37.683594 57.332031 37.097656 C 52 33.402344 52 29.332031 52 29.332031 Z M 52 29.332031 "/>
<path style=" stroke:none;fill-rule:nonzero;fill:rgb(20.392157%,59.607846%,85.882354%);fill-opacity:1;" d="M 33.332031 49.332031 C 41.332031 45.332031 41.332031 40 41.332031 40 C 41.332031 37.789062 39.542969 36 37.332031 36 C 35.125 36 33.332031 37.789062 33.332031 40 C 33.332031 37.789062 31.542969 36 29.332031 36 C 27.125 36 25.332031 37.789062 25.332031 40 C 25.332031 40 25.332031 45.332031 33.332031 49.332031 Z M 33.332031 49.332031 "/>
<path style=" stroke:none;fill-rule:nonzero;fill:rgb(10.196079%,73.725492%,61.176473%);fill-opacity:1;" d="M 30.667969 40 C 30.667969 38.867188 31.152344 37.789062 32 37.039062 C 30.832031 35.972656 29.144531 35.703125 27.699219 36.34375 C 26.253906 36.984375 25.328125 38.417969 25.332031 40 C 25.332031 40 25.332031 45.332031 33.332031 49.332031 C 34.257812 48.875 35.148438 48.351562 36 47.765625 C 30.667969 44.070312 30.667969 40 30.667969 40 Z M 30.667969 40 "/>
<path style=" stroke:none;fill-rule:nonzero;fill:rgb(43.137255%,88.235295%,93.725491%);fill-opacity:1;" d="M 41.332031 10.667969 L 62.667969 4 L 62.667969 13.332031 L 41.332031 20 Z M 41.332031 10.667969 "/>
<path style=" stroke:none;fill-rule:nonzero;fill:rgb(46.27451%,63.529414%,95.294118%);fill-opacity:1;" d="M 9.332031 62.667969 C 17.332031 58.667969 17.332031 53.332031 17.332031 53.332031 C 17.332031 51.125 15.542969 49.332031 13.332031 49.332031 C 11.125 49.332031 9.332031 51.125 9.332031 53.332031 C 9.332031 51.125 7.542969 49.332031 5.332031 49.332031 C 3.125 49.332031 1.332031 51.125 1.332031 53.332031 C 1.332031 53.332031 1.332031 58.667969 9.332031 62.667969 Z M 9.332031 62.667969 "/>
<path style=" stroke:none;fill-rule:nonzero;fill:rgb(11.764706%,43.921569%,54.901963%);fill-opacity:1;" d="M 6.667969 53.332031 C 6.667969 52.203125 7.152344 51.125 8 50.371094 C 6.832031 49.308594 5.144531 49.035156 3.699219 49.675781 C 2.253906 50.316406 1.328125 51.753906 1.332031 53.332031 C 1.332031 53.332031 1.332031 58.667969 9.332031 62.667969 C 10.257812 62.207031 11.148438 61.683594 12 61.097656 C 6.667969 57.402344 6.667969 53.332031 6.667969 53.332031 Z M 6.667969 53.332031 "/>
<path style=" stroke:none;fill-rule:nonzero;fill:rgb(43.137255%,88.235295%,93.725491%);fill-opacity:1;" d="M 17.332031 26.667969 L 28 22.667969 L 28 29.332031 L 17.332031 33.332031 Z M 17.332031 26.667969 "/>
<path style=" stroke:none;fill-rule:nonzero;fill:rgb(0%,0%,0%);fill-opacity:1;" d="M 12 5.332031 C 12.355469 5.332031 12.691406 5.191406 12.941406 4.941406 C 13.191406 4.691406 13.332031 4.355469 13.332031 4 L 13.332031 1.332031 C 13.332031 0.597656 12.738281 0 12 0 C 11.261719 0 10.667969 0.597656 10.667969 1.332031 L 10.667969 4 C 10.667969 4.355469 10.808594 4.691406 11.058594 4.941406 C 11.308594 5.191406 11.644531 5.332031 12 5.332031 Z M 12 5.332031 "/>
<path style=" stroke:none;fill-rule:nonzero;fill:rgb(0%,0%,0%);fill-opacity:1;" d="M 12 8 C 11.644531 8 11.308594 8.140625 11.058594 8.390625 C 10.808594 8.640625 10.667969 8.980469 10.667969 9.332031 L 10.667969 12 C 10.667969 12.738281 11.261719 13.332031 12 13.332031 C 12.738281 13.332031 13.332031 12.738281 13.332031 12 L 13.332031 9.332031 C 13.332031 8.980469 13.191406 8.640625 12.941406 8.390625 C 12.691406 8.140625 12.355469 8 12 8 Z M 12 8 "/>
<path style=" stroke:none;fill-rule:nonzero;fill:rgb(0%,0%,0%);fill-opacity:1;" d="M 14.667969 8 L 17.332031 8 C 18.070312 8 18.667969 7.402344 18.667969 6.667969 C 18.667969 5.929688 18.070312 5.332031 17.332031 5.332031 L 14.667969 5.332031 C 13.929688 5.332031 13.332031 5.929688 13.332031 6.667969 C 13.332031 7.402344 13.929688 8 14.667969 8 Z M 14.667969 8 "/>
<path style=" stroke:none;fill-rule:nonzero;fill:rgb(0%,0%,0%);fill-opacity:1;" d="M 6.667969 8 L 9.332031 8 C 10.070312 8 10.667969 7.402344 10.667969 6.667969 C 10.667969 5.929688 10.070312 5.332031 9.332031 5.332031 L 6.667969 5.332031 C 5.929688 5.332031 5.332031 5.929688 5.332031 6.667969 C 5.332031 7.402344 5.929688 8 6.667969 8 Z M 6.667969 8 "/>
<path style=" stroke:none;fill-rule:nonzero;fill:rgb(0%,0%,0%);fill-opacity:1;" d="M 52 50.667969 C 52.355469 50.667969 52.691406 50.527344 52.941406 50.277344 C 53.191406 50.027344 53.332031 49.6875 53.332031 49.332031 L 53.332031 46.667969 C 53.332031 45.929688 52.738281 45.332031 52 45.332031 C 51.261719 45.332031 50.667969 45.929688 50.667969 46.667969 L 50.667969 49.332031 C 50.667969 49.6875 50.808594 50.027344 51.058594 50.277344 C 51.308594 50.527344 51.644531 50.667969 52 50.667969 Z M 52 50.667969 "/>
<path style=" stroke:none;fill-rule:nonzero;fill:rgb(0%,0%,0%);fill-opacity:1;" d="M 52 53.332031 C 51.644531 53.332031 51.308594 53.472656 51.058594 53.722656 C 50.808594 53.972656 50.667969 54.3125 50.667969 54.667969 L 50.667969 57.332031 C 50.667969 58.070312 51.261719 58.667969 52 58.667969 C 52.738281 58.667969 53.332031 58.070312 53.332031 57.332031 L 53.332031 54.667969 C 53.332031 54.3125 53.191406 53.972656 52.941406 53.722656 C 52.691406 53.472656 52.355469 53.332031 52 53.332031 Z M 52 53.332031 "/>
<path style=" stroke:none;fill-rule:nonzero;fill:rgb(0%,0%,0%);fill-opacity:1;" d="M 57.332031 50.667969 L 54.667969 50.667969 C 53.929688 50.667969 53.332031 51.261719 53.332031 52 C 53.332031 52.738281 53.929688 53.332031 54.667969 53.332031 L 57.332031 53.332031 C 58.070312 53.332031 58.667969 52.738281 58.667969 52 C 58.667969 51.261719 58.070312 50.667969 57.332031 50.667969 Z M 57.332031 50.667969 "/>
<path style=" stroke:none;fill-rule:nonzero;fill:rgb(0%,0%,0%);fill-opacity:1;" d="M 49.332031 50.667969 L 46.667969 50.667969 C 45.929688 50.667969 45.332031 51.261719 45.332031 52 C 45.332031 52.738281 45.929688 53.332031 46.667969 53.332031 L 49.332031 53.332031 C 50.070312 53.332031 50.667969 52.738281 50.667969 52 C 50.667969 51.261719 50.070312 50.667969 49.332031 50.667969 Z M 49.332031 50.667969 "/>
<path style=" stroke:none;fill-rule:nonzero;fill:rgb(0%,0%,0%);fill-opacity:1;" d="M 28.46875 30.582031 C 29.152344 30.320312 29.5 29.554688 29.242188 28.867188 C 28.984375 28.179688 28.21875 27.832031 27.53125 28.085938 L 18.667969 31.410156 L 18.667969 27.589844 L 28.46875 23.914062 C 29.152344 23.652344 29.5 22.886719 29.242188 22.199219 C 28.984375 21.515625 28.21875 21.164062 27.53125 21.417969 L 16.863281 25.417969 C 16.34375 25.613281 16 26.109375 16 26.667969 L 16 48.742188 C 13.8125 47.4375 11.003906 47.886719 9.332031 49.808594 C 7.867188 48.144531 5.523438 47.558594 3.449219 48.34375 C 1.371094 49.128906 0 51.113281 0 53.332031 C 0 53.585938 0.0976562 59.539062 8.738281 63.859375 C 9.113281 64.046875 9.554688 64.046875 9.929688 63.859375 C 18.566406 59.539062 18.667969 53.585938 18.667969 53.332031 L 18.667969 34.257812 Z M 9.332031 61.164062 C 2.851562 57.6875 2.671875 53.5 2.667969 53.332031 C 2.667969 51.859375 3.859375 50.667969 5.332031 50.667969 C 6.804688 50.667969 8 51.859375 8 53.332031 C 8 54.070312 8.597656 54.667969 9.332031 54.667969 C 10.070312 54.667969 10.667969 54.070312 10.667969 53.332031 C 10.660156 51.859375 11.851562 50.664062 13.324219 50.65625 C 14.796875 50.652344 15.996094 51.84375 16 53.316406 C 15.996094 53.5 15.8125 57.6875 9.332031 61.164062 Z M 9.332031 61.164062 "/>
<path style=" stroke:none;fill-rule:nonzero;fill:rgb(0%,0%,0%);fill-opacity:1;" d="M 62.667969 2.667969 C 62.558594 2.667969 40.9375 9.394531 40.9375 9.394531 C 40.378906 9.566406 40 10.082031 40 10.667969 L 40 35.410156 C 37.8125 34.105469 35.003906 34.554688 33.332031 36.476562 C 31.867188 34.8125 29.523438 34.226562 27.449219 35.011719 C 25.371094 35.792969 24 37.78125 24 40 C 24 40.25 24.097656 46.207031 32.738281 50.527344 C 33.113281 50.714844 33.554688 50.714844 33.929688 50.527344 C 42.566406 46.207031 42.667969 40.25 42.667969 40 L 42.667969 20.980469 L 61.332031 15.144531 L 61.332031 24.742188 C 59.144531 23.4375 56.335938 23.886719 54.667969 25.808594 C 53.203125 24.144531 50.855469 23.558594 48.78125 24.34375 C 46.707031 25.128906 45.332031 27.113281 45.332031 29.332031 C 45.332031 29.585938 45.433594 35.539062 54.070312 39.859375 C 54.445312 40.046875 54.886719 40.046875 55.261719 39.859375 C 63.902344 35.539062 64 29.585938 64 29.332031 L 64 4 C 64 3.644531 63.859375 3.308594 63.609375 3.058594 C 63.359375 2.808594 63.019531 2.667969 62.667969 2.667969 Z M 33.332031 47.832031 C 26.851562 44.355469 26.671875 40.164062 26.667969 40 C 26.667969 38.527344 27.859375 37.332031 29.332031 37.332031 C 30.804688 37.332031 32 38.527344 32 40 C 32 40.738281 32.597656 41.332031 33.332031 41.332031 C 34.070312 41.332031 34.667969 40.738281 34.667969 40 C 34.660156 38.527344 35.851562 37.328125 37.324219 37.324219 C 38.796875 37.320312 39.996094 38.511719 40 39.984375 C 39.996094 40.164062 39.8125 44.355469 33.332031 47.832031 Z M 42.667969 18.1875 L 42.667969 11.648438 L 61.332031 5.8125 L 61.332031 12.351562 Z M 54.667969 37.164062 C 48.1875 33.6875 48.003906 29.5 48 29.332031 C 48 27.859375 49.195312 26.667969 50.667969 26.667969 C 52.140625 26.667969 53.332031 27.859375 53.332031 29.332031 C 53.332031 30.070312 53.929688 30.667969 54.667969 30.667969 C 55.402344 30.667969 56 30.070312 56 29.332031 C 55.996094 27.859375 57.183594 26.664062 58.65625 26.65625 C 60.132812 26.652344 61.328125 27.84375 61.332031 29.316406 C 61.328125 29.5 61.148438 33.6875 54.667969 37.164062 Z M 54.667969 37.164062 "/>
<path style=" stroke:none;fill-rule:nonzero;fill:rgb(0%,0%,0%);fill-opacity:1;" d="M 26.667969 14.667969 L 28 14.667969 L 28 16 C 28 16.738281 28.597656 17.332031 29.332031 17.332031 C 30.070312 17.332031 30.667969 16.738281 30.667969 16 L 30.667969 14.667969 L 32 14.667969 C 32.738281 14.667969 33.332031 14.070312 33.332031 13.332031 C 33.332031 12.597656 32.738281 12 32 12 L 30.667969 12 L 30.667969 10.667969 C 30.667969 9.929688 30.070312 9.332031 29.332031 9.332031 C 28.597656 9.332031 28 9.929688 28 10.667969 L 28 12 L 26.667969 12 C 25.929688 12 25.332031 12.597656 25.332031 13.332031 C 25.332031 14.070312 25.929688 14.667969 26.667969 14.667969 Z M 26.667969 14.667969 "/>
<path style=" stroke:none;fill-rule:nonzero;fill:rgb(0%,0%,0%);fill-opacity:1;" d="M 29.332031 56 L 28 56 L 28 54.667969 C 28 53.929688 27.402344 53.332031 26.667969 53.332031 C 25.929688 53.332031 25.332031 53.929688 25.332031 54.667969 L 25.332031 56 L 24 56 C 23.261719 56 22.667969 56.597656 22.667969 57.332031 C 22.667969 58.070312 23.261719 58.667969 24 58.667969 L 25.332031 58.667969 L 25.332031 60 C 25.332031 60.738281 25.929688 61.332031 26.667969 61.332031 C 27.402344 61.332031 28 60.738281 28 60 L 28 58.667969 L 29.332031 58.667969 C 30.070312 58.667969 30.667969 58.070312 30.667969 57.332031 C 30.667969 56.597656 30.070312 56 29.332031 56 Z M 29.332031 56 "/>
</g>
</svg>
