<?xml version="1.0" encoding="UTF-8"?>
<svg xmlns="http://www.w3.org/2000/svg" xmlns:xlink="http://www.w3.org/1999/xlink" viewBox="0 0 64 64" width="64px" height="64px">
<g id="surface40015006">
<path style=" stroke:none;fill-rule:nonzero;fill:rgb(0%,93.725491%,81.960785%);fill-opacity:1;" d="M 48.8125 18.851562 L 48.8125 56.507812 C 48.8125 57.914062 48.253906 59.265625 47.257812 60.257812 C 46.265625 61.253906 44.914062 61.8125 43.507812 61.8125 L 39.964844 61.8125 C 39.554688 57.296875 35.765625 53.839844 31.230469 53.839844 C 26.695312 53.839844 22.90625 57.296875 22.492188 61.8125 L 20.582031 61.8125 C 17.65625 61.8125 15.28125 59.441406 15.277344 56.515625 L 15.207031 18.851562 Z M 43.703125 48.46875 L 43.703125 24.355469 L 20.53125 24.355469 L 20.53125 48.46875 Z M 43.703125 48.46875 "/>
<path style=" stroke:none;fill-rule:nonzero;fill:rgb(0%,67.450982%,91.764706%);fill-opacity:1;" d="M 48.8125 7.492188 L 48.8125 18.851562 L 15.207031 18.851562 L 15.1875 7.5 L 15.1875 7.492188 C 15.1875 6.085938 15.746094 4.734375 16.742188 3.742188 C 17.734375 2.746094 19.085938 2.1875 20.492188 2.1875 L 23.367188 2.1875 C 24.1875 6.28125 27.679688 9.339844 32.050781 9.339844 C 36.289062 9.355469 39.933594 6.347656 40.730469 2.1875 L 43.507812 2.1875 C 44.914062 2.1875 46.265625 2.746094 47.257812 3.742188 C 48.253906 4.734375 48.8125 6.085938 48.8125 7.492188 Z M 48.8125 7.492188 "/>
<path style=" stroke:none;fill-rule:nonzero;fill:rgb(0%,67.450982%,91.764706%);fill-opacity:1;" d="M 43.703125 24.355469 L 43.703125 48.46875 L 20.53125 48.46875 L 20.53125 24.355469 Z M 36.035156 41.617188 C 36.035156 40.25 34.925781 39.140625 33.558594 39.140625 C 32.1875 39.140625 31.078125 40.25 31.078125 41.617188 C 31.078125 42.988281 32.1875 44.097656 33.558594 44.097656 C 34.925781 44.09375 36.035156 42.988281 36.035156 41.617188 Z M 36.035156 41.617188 "/>
<path style=" stroke:none;fill-rule:nonzero;fill:rgb(0%,67.450982%,91.764706%);fill-opacity:1;" d="M 36.035156 41.617188 C 36.035156 42.988281 34.925781 44.097656 33.558594 44.097656 C 32.191406 44.097656 31.082031 42.988281 31.082031 41.617188 C 31.082031 40.25 32.191406 39.140625 33.558594 39.140625 C 34.925781 39.140625 36.035156 40.25 36.035156 41.617188 Z M 36.035156 41.617188 "/>
<path style=" stroke:none;fill-rule:nonzero;fill:rgb(3.137255%,21.960784%,38.82353%);fill-opacity:1;" d="M 43.507812 1.25 L 40.730469 1.25 C 40.257812 1.234375 39.84375 1.566406 39.75 2.03125 C 39.042969 5.707031 35.820312 8.363281 32.078125 8.355469 C 32.066406 8.355469 32.058594 8.347656 32.046875 8.347656 C 28.289062 8.378906 25.050781 5.71875 24.347656 2.027344 C 24.25 1.566406 23.839844 1.238281 23.367188 1.25 L 20.492188 1.25 C 18.824219 1.246094 17.21875 1.90625 16.035156 3.085938 C 14.855469 4.261719 14.1875 5.863281 14.1875 7.535156 L 14.207031 18.871094 L 14.277344 56.558594 C 14.285156 60.039062 17.101562 62.859375 20.582031 62.875 L 22.492188 62.875 C 23.015625 62.859375 23.445312 62.457031 23.488281 61.933594 C 23.847656 57.925781 27.207031 54.851562 31.234375 54.855469 C 35.257812 54.855469 38.617188 57.933594 38.96875 61.941406 C 39.015625 62.460938 39.445312 62.863281 39.964844 62.875 L 43.507812 62.875 C 46.984375 62.875 49.75 59.984375 49.75 56.507812 L 49.75 7.492188 C 49.761719 5.832031 49.105469 4.242188 47.933594 3.066406 C 46.757812 1.894531 45.167969 1.238281 43.507812 1.25 Z M 20.492188 3.25 L 22.582031 3.25 C 23.789062 7.5 27.574219 10.371094 32.042969 10.371094 C 32.058594 10.371094 32.070312 10.386719 32.082031 10.386719 C 36.5 10.386719 40.34375 7.375 41.523438 3.25 L 43.507812 3.25 C 44.636719 3.238281 45.722656 3.683594 46.519531 4.480469 C 47.316406 5.277344 47.761719 6.363281 47.75 7.492188 L 47.75 17.875 L 16.207031 17.875 L 16.1875 7.535156 C 16.191406 6.394531 16.644531 5.304688 17.453125 4.5 C 18.257812 3.695312 19.351562 3.246094 20.492188 3.25 Z M 43.507812 60.875 L 40.835938 60.875 C 40.042969 56.5 36.507812 53.34375 32.121094 52.941406 C 27.089844 52.449219 22.523438 55.898438 21.625 60.875 L 20.582031 60.875 C 18.203125 60.863281 16.285156 58.933594 16.277344 56.558594 L 16.210938 19.875 L 47.75 19.875 L 47.75 56.507812 C 47.75 58.882812 45.882812 60.875 43.507812 60.875 Z M 43.507812 60.875 "/>
<path style=" stroke:none;fill-rule:nonzero;fill:rgb(3.137255%,21.960784%,38.82353%);fill-opacity:1;" d="M 44.625 24.375 C 44.625 23.824219 44.175781 23.375 43.625 23.375 L 20.5 23.375 C 19.949219 23.375 19.5 23.824219 19.5 24.375 L 19.5 48.5 C 19.5 49.050781 19.949219 49.5 20.5 49.5 L 43.625 49.5 C 44.175781 49.5 44.625 49.050781 44.625 48.5 Z M 42.75 47.5 L 21.5 47.5 L 21.5 25.375 L 42.75 25.375 Z M 42.75 47.5 "/>
<path style=" stroke:none;fill-rule:nonzero;fill:rgb(3.137255%,21.960784%,38.82353%);fill-opacity:1;" d="M 30.078125 41.617188 C 30.089844 43.535156 31.648438 45.082031 33.566406 45.082031 C 35.480469 45.082031 37.039062 43.535156 37.050781 41.617188 C 37.035156 40.566406 36.558594 39.570312 35.75 38.898438 L 35.75 32.371094 L 38.90625 35.253906 C 39.171875 35.496094 39.546875 35.582031 39.886719 35.472656 C 40.226562 35.363281 40.484375 35.078125 40.558594 34.726562 C 40.632812 34.375 40.511719 34.011719 40.242188 33.773438 L 35.394531 29.367188 C 35.105469 29.101562 34.6875 29.035156 34.332031 29.195312 C 33.972656 29.355469 33.742188 29.714844 33.75 30.109375 L 33.75 38.144531 C 33.625 38.144531 33.628906 38.140625 33.574219 38.140625 C 31.652344 38.140625 30.089844 39.695312 30.078125 41.617188 Z M 33.558594 43.097656 C 32.742188 43.097656 32.078125 42.433594 32.078125 41.617188 C 32.078125 40.804688 32.742188 40.140625 33.558594 40.140625 C 34.375 40.140625 35.035156 40.804688 35.035156 41.617188 C 35.035156 42.433594 34.375 43.09375 33.558594 43.097656 Z M 33.558594 43.097656 "/>
<path style=" stroke:none;fill-rule:nonzero;fill:rgb(3.137255%,21.960784%,38.82353%);fill-opacity:1;" d="M 24.480469 31.5 L 31.515625 31.5 C 32.070312 31.5 32.515625 31.050781 32.515625 30.5 C 32.515625 29.949219 32.070312 29.5 31.515625 29.5 L 24.480469 29.5 C 23.925781 29.5 23.480469 29.949219 23.480469 30.5 C 23.480469 31.050781 23.925781 31.5 24.480469 31.5 Z M 24.480469 31.5 "/>
<path style=" stroke:none;fill-rule:nonzero;fill:rgb(3.137255%,21.960784%,38.82353%);fill-opacity:1;" d="M 24.480469 34.5 L 31.515625 34.5 C 32.070312 34.5 32.515625 34.050781 32.515625 33.5 C 32.515625 32.949219 32.070312 32.5 31.515625 32.5 L 24.480469 32.5 C 23.925781 32.5 23.480469 32.949219 23.480469 33.5 C 23.480469 34.050781 23.925781 34.5 24.480469 34.5 Z M 24.480469 34.5 "/>
<path style=" stroke:none;fill-rule:nonzero;fill:rgb(3.137255%,21.960784%,38.82353%);fill-opacity:1;" d="M 24.480469 37.625 L 31.515625 37.625 C 32.070312 37.625 32.515625 37.175781 32.515625 36.625 C 32.515625 36.074219 32.070312 35.625 31.515625 35.625 L 24.480469 35.625 C 23.925781 35.625 23.480469 36.074219 23.480469 36.625 C 23.480469 37.175781 23.925781 37.625 24.480469 37.625 Z M 24.480469 37.625 "/>
</g>
</svg>
