<?xml version="1.0" encoding="UTF-8"?>
<svg xmlns="http://www.w3.org/2000/svg" xmlns:xlink="http://www.w3.org/1999/xlink" viewBox="0 0 64 64" width="64px" height="64px">
<g id="surface2995549">
<path style=" stroke:none;fill-rule:nonzero;fill:rgb(0%,93.725491%,81.960785%);fill-opacity:1;" d="M 52.398438 14.414062 L 52.398438 21.414062 L 11.601562 21.414062 L 11.601562 14.414062 C 11.601562 12.339844 13.277344 10.664062 15.351562 10.664062 L 48.648438 10.664062 C 50.722656 10.664062 52.398438 12.339844 52.398438 14.414062 Z M 52.398438 14.414062 "/>
<path style=" stroke:none;fill-rule:nonzero;fill:rgb(0%,67.450982%,91.764706%);fill-opacity:1;" d="M 48.824219 21.460938 L 48.824219 54.5625 C 48.824219 57.699219 46.585938 59.9375 43.824219 59.9375 L 20.175781 59.9375 C 17.414062 59.9375 15.175781 57.699219 15.175781 54.5625 L 15.175781 21.414062 L 48.824219 21.414062 Z M 48.824219 21.460938 "/>
<path style=" stroke:none;fill-rule:nonzero;fill:rgb(3.137255%,21.960784%,38.82353%);fill-opacity:1;" d="M 39.425781 53.335938 C 40.117188 53.335938 40.675781 52.777344 40.675781 52.085938 L 40.675781 27.210938 C 40.675781 26.523438 40.117188 25.960938 39.425781 25.960938 C 38.734375 25.960938 38.175781 26.523438 38.175781 27.210938 L 38.175781 52.085938 C 38.175781 52.777344 38.734375 53.335938 39.425781 53.335938 Z M 39.425781 53.335938 "/>
<path style=" stroke:none;fill-rule:nonzero;fill:rgb(3.137255%,21.960784%,38.82353%);fill-opacity:1;" d="M 24.574219 53.335938 C 25.265625 53.335938 25.824219 52.777344 25.824219 52.085938 L 25.824219 27.210938 C 25.824219 26.523438 25.265625 25.960938 24.574219 25.960938 C 23.882812 25.960938 23.324219 26.523438 23.324219 27.210938 L 23.324219 52.085938 C 23.324219 52.777344 23.882812 53.335938 24.574219 53.335938 Z M 24.574219 53.335938 "/>
<path style=" stroke:none;fill-rule:nonzero;fill:rgb(3.137255%,21.960784%,38.82353%);fill-opacity:1;" d="M 48.648438 9.414062 L 42.550781 9.414062 L 42.550781 7.8125 C 42.546875 5.050781 40.308594 2.816406 37.550781 2.8125 L 26.449219 2.8125 C 23.691406 2.816406 21.453125 5.050781 21.449219 7.8125 L 21.449219 9.414062 L 15.351562 9.414062 C 12.589844 9.414062 10.351562 11.652344 10.351562 14.414062 L 10.351562 21.414062 C 10.351562 22.101562 10.910156 22.664062 11.601562 22.664062 L 13.925781 22.664062 L 13.925781 54.5625 C 13.925781 56.382812 14.566406 58.0625 15.734375 59.289062 C 16.886719 60.507812 18.496094 61.195312 20.175781 61.1875 L 43.824219 61.1875 C 45.503906 61.195312 47.113281 60.507812 48.265625 59.289062 C 49.433594 58.0625 50.074219 56.382812 50.074219 54.5625 L 50.074219 22.664062 L 52.398438 22.664062 C 53.089844 22.664062 53.648438 22.101562 53.648438 21.414062 L 53.648438 14.414062 C 53.648438 11.652344 51.410156 9.414062 48.648438 9.414062 Z M 23.949219 7.8125 C 23.953125 6.433594 25.070312 5.3125 26.449219 5.3125 L 37.550781 5.3125 C 38.929688 5.3125 40.046875 6.433594 40.050781 7.8125 L 40.050781 9.414062 L 23.949219 9.414062 Z M 47.574219 54.5625 C 47.574219 56.914062 45.960938 58.6875 43.824219 58.6875 L 20.175781 58.6875 C 18.039062 58.6875 16.425781 56.914062 16.425781 54.5625 L 16.425781 22.664062 L 47.574219 22.664062 Z M 51.148438 20.164062 L 12.851562 20.164062 L 12.851562 14.414062 C 12.851562 13.03125 13.96875 11.914062 15.351562 11.914062 L 48.648438 11.914062 C 50.03125 11.914062 51.148438 13.03125 51.148438 14.414062 Z M 51.148438 20.164062 "/>
</g>
</svg>
