<?xml version="1.0" encoding="UTF-8"?>
<svg xmlns="http://www.w3.org/2000/svg" xmlns:xlink="http://www.w3.org/1999/xlink" viewBox="0 0 64 64" width="64px" height="64px">
<g id="surface14791491">
<path style=" stroke:none;fill-rule:nonzero;fill:rgb(100%,100%,100%);fill-opacity:1;" d="M 21 0 C 19.34375 0 18 1.34375 18 3 L 18 8 L 8 8 C 6.894531 8 6 8.894531 6 10 L 6 16 C 6 17.105469 6.894531 18 8 18 L 56 18 C 57.105469 18 58 17.105469 58 16 L 58 10 C 58 8.894531 57.105469 8 56 8 L 46 8 L 46 3 C 46 1.34375 44.65625 0 43 0 Z M 21 2 L 43 2 C 43.550781 2 44 2.449219 44 3 L 44 8 L 20 8 L 20 3 C 20 2.449219 20.449219 2 21 2 Z M 8 10 L 56 10 L 56 16 L 8 16 Z M 10.976562 20 C 10.699219 20.007812 10.4375 20.128906 10.253906 20.335938 C 10.066406 20.542969 9.976562 20.816406 10.003906 21.09375 L 14.003906 63.09375 C 14.050781 63.609375 14.484375 64 15 64 L 49 64 C 49.515625 64 49.949219 63.609375 49.996094 63.09375 L 53.996094 21.09375 C 54.019531 20.828125 53.941406 20.566406 53.769531 20.363281 C 53.601562 20.160156 53.359375 20.03125 53.09375 20.003906 C 52.828125 19.976562 52.566406 20.058594 52.359375 20.226562 C 52.15625 20.394531 52.027344 20.640625 52.003906 20.902344 L 48.089844 62 L 15.910156 62 L 11.996094 20.90625 C 11.945312 20.382812 11.5 19.988281 10.976562 20 Z M 31.96875 23 C 31.429688 23.015625 31 23.457031 31 24 L 31 56 C 31 56.550781 31.449219 57 32 57 C 32.550781 57 33 56.550781 33 56 L 33 24 C 33 23.730469 32.890625 23.472656 32.695312 23.28125 C 32.503906 23.09375 32.242188 22.992188 31.972656 23 Z M 42.960938 23.003906 C 42.453125 23.027344 42.039062 23.429688 42.003906 23.9375 L 40.003906 55.9375 C 39.984375 56.203125 40.074219 56.460938 40.25 56.660156 C 40.425781 56.859375 40.671875 56.980469 40.9375 56.996094 C 40.957031 57 40.980469 57 41.003906 57 C 41.527344 57 41.964844 56.589844 42 56.0625 L 44 24.0625 C 44.015625 23.796875 43.925781 23.539062 43.75 23.339844 C 43.574219 23.140625 43.328125 23.019531 43.0625 23.003906 C 43.027344 23 42.996094 23 42.960938 23.003906 Z M 21 23.011719 C 20.726562 23.011719 20.464844 23.121094 20.273438 23.320312 C 20.085938 23.519531 19.988281 23.789062 20.003906 24.0625 L 22.003906 56.0625 C 22.035156 56.589844 22.472656 57 22.996094 57 C 23.019531 57 23.039062 57 23.0625 56.996094 C 23.328125 56.980469 23.574219 56.859375 23.75 56.660156 C 23.925781 56.460938 24.015625 56.203125 24 55.9375 L 22 23.9375 C 21.960938 23.414062 21.523438 23.007812 21 23.007812 Z M 21 23.011719 "/>
</g>
</svg>
